<?xml version="1.0" encoding="UTF-8"?>
<svg width="281px" height="122px" viewBox="0 0 281 122" version="1.1" xmlns="http://www.w3.org/2000/svg" xmlns:xlink="http://www.w3.org/1999/xlink">
    <!-- Generator: Sketch 50.2 (55047) - http://www.bohemiancoding.com/sketch -->
    <title>ekvw_positiv</title>
    <desc>Created with Sketch.</desc>
    <defs></defs>
    <g id="Page-1" stroke="none" stroke-width="1" fill="none" fill-rule="evenodd">
        <g id="ekvw_positiv" fill-rule="nonzero">
            <g id="Schriftzug">
                <g id="Group">
                    <polygon id="Shape" fill="#161615" points="1 2 8.684 2 8.684 3.509 2.956 3.509 2.956 7.71 7.158 7.71 7.158 9.219 2.956 9.219 2.956 13.798 9.325 13.798 9.325 15.333 1 15.333"></polygon>
                    <path d="M48.481,5.333 L47.507,5.333 C46.87,5.333 46.177,5.545 45.724,5.789 C44.996,5.357 44.044,5.15 43.103,5.168 C40.875,5.211 39.156,6.29 39.156,8.624 C39.156,9.878 39.831,10.869 40.884,11.431 C40.121,11.949 39.674,12.72 39.656,13.377 C39.647,13.903 39.779,14.5 40.428,14.877 C39.787,15.229 39.033,15.912 39.033,16.921 C39.033,18.93 40.656,19.824 43.2,19.833 C45.858,19.842 48.059,18.614 48.059,16.605 C48.059,15.219 47.419,13.815 44.375,13.815 L42.56,13.815 C41.727,13.815 41.42,13.605 41.42,12.85 C41.42,12.455 41.657,12.053 41.982,11.826 C42.324,11.904 42.684,11.939 43.069,11.939 C45.341,11.939 47.095,10.729 47.095,8.509 C47.095,7.869 46.948,7.323 46.7,6.867 L48.481,6.867 L48.481,5.333 Z M41.551,15.272 C41.911,15.325 42.332,15.334 42.849,15.334 L43.744,15.334 C45.762,15.334 46.218,15.947 46.218,17.026 C46.218,18.026 44.832,18.508 43.271,18.508 C41.569,18.508 40.911,17.911 40.911,16.693 C40.911,15.947 41.226,15.562 41.551,15.272 Z M43.112,10.65 C41.656,10.65 41.077,9.659 41.077,8.536 C41.077,6.86 42.077,6.474 43.2,6.474 C44.533,6.474 45.174,7.21 45.174,8.579 C45.174,10.168 44.393,10.65 43.112,10.65 Z" id="Shape" fill="#161615"></path>
                    <path d="M53.523,5.167 C55.514,5.132 57.128,6.445 57.207,8.958 C57.207,9.717 57.207,10.308 57.111,10.757 L50.944,10.757 C50.944,10.819 50.953,10.871 50.953,10.933 C51.067,13.296 52.374,14.037 54.006,14.037 C54.673,14.037 56.006,13.781 56.497,13.491 L56.866,14.601 C56.208,15.139 54.69,15.5 53.489,15.5 C50.647,15.5 49.059,13.578 49.059,10.315 C49.058,7.389 50.593,5.22 53.523,5.167 Z M55.4,9.47 C55.487,8.032 55.172,6.543 53.417,6.543 C52.215,6.543 51.215,7.301 50.987,9.47 L55.4,9.47 Z" id="Shape" fill="#161615"></path>
                    <polygon id="Shape" fill="#161615" points="59.385 2 61.315 2 61.315 15.333 59.385 15.333"></polygon>
                    <polygon id="Shape" fill="#161615" points="92.491 28.667 94.421 28.667 94.421 42 92.491 42"></polygon>
                    <rect id="Rectangle-path" fill="#161615" x="63.967" y="5.333" width="1.93" height="10"></rect>
                    <path d="M68.315,13.34 C68.587,13.533 69.85,14.045 71.122,14.063 C72.297,14.072 72.937,13.614 72.937,12.829 C72.937,12.009 72.016,11.533 70.876,11.049 C69.279,10.369 68.069,9.461 68.086,7.778 C68.112,6.032 69.717,5.169 71.7,5.169 C72.911,5.169 73.937,5.522 74.236,5.689 L73.92,7.153 C73.613,6.888 72.692,6.597 71.762,6.597 C70.534,6.597 69.885,7.02 69.867,7.672 C69.841,8.608 70.586,9.048 71.805,9.542 C73.147,10.088 74.735,10.97 74.735,12.689 C74.735,14.514 73.375,15.502 71.208,15.502 C69.84,15.502 68.498,15.132 68.024,14.787 L68.315,13.34 Z" id="Shape" fill="#161615"></path>
                    <path d="M60.866,40.007 C61.137,40.2 62.401,40.712 63.673,40.73 C64.849,40.739 65.489,40.28 65.489,39.496 C65.489,38.676 64.568,38.2 63.427,37.715 C61.83,37.036 60.619,36.128 60.637,34.444 C60.663,32.699 62.269,31.835 64.251,31.835 C65.461,31.835 66.488,32.188 66.786,32.356 L66.471,33.819 C66.164,33.555 65.242,33.264 64.313,33.264 C63.085,33.264 62.436,33.687 62.418,34.339 C62.392,35.274 63.137,35.715 64.356,36.208 C65.698,36.755 67.286,37.637 67.286,39.355 C67.286,41.18 65.927,42.168 63.76,42.168 C62.392,42.168 61.049,41.797 60.576,41.453 L60.866,40.007 Z" id="Shape" fill="#161615"></path>
                    <path d="M80.791,5.167 C82.045,5.167 82.932,5.475 83.247,5.687 L82.94,7.221 C82.414,6.851 81.712,6.665 80.694,6.665 C79.317,6.665 77.913,7.644 77.826,10.095 C77.738,12.653 79.019,14.036 80.641,14.036 C81.641,14.036 82.58,13.719 83.027,13.445 L83.422,14.548 C82.808,15.121 81.615,15.5 80.352,15.5 C77.536,15.5 75.957,13.313 75.957,10.439 C75.958,7.477 77.572,5.167 80.791,5.167 Z" id="Shape" fill="#161615"></path>
                    <path d="M90.066,5.168 C88.874,5.202 87.586,5.708 86.802,6.248 L86.802,2 L84.872,2 L84.872,15.333 L86.802,15.333 L86.802,7.694 C87.601,7.115 88.618,6.808 89.267,6.782 C90.793,6.712 91.214,7.449 91.214,9.081 L91.214,15.333 L93.1440008,15.333 L93.144,9.221 C93.145,6.3 92.241,5.115 90.066,5.168 Z" id="Shape" fill="#000000"></path>
                    <path d="M147.893,5.168 C146.702,5.202 145.413,5.708 144.63,6.248 L144.63,2 L142.699,2 L142.699,15.333 L144.63,15.333 L144.63,7.694 C145.428,7.115 146.445,6.808 147.095,6.782 C148.621,6.712 149.042,7.449 149.042,9.08 L149.042,15.333 L150.973,15.333 L150.973,9.221 C150.973,6.3 150.068,5.115 147.893,5.168 Z" id="Shape" fill="#000000"></path>
                    <path d="M99.488,5.167 C101.48,5.132 103.094,6.445 103.173,8.958 C103.173,9.717 103.173,10.308 103.077,10.757 L96.91,10.757 C96.91,10.819 96.919,10.871 96.919,10.933 C97.033,13.296 98.34,14.037 99.971,14.037 C100.638,14.037 101.971,13.781 102.463,13.491 L102.831,14.601 C102.173,15.139 100.656,15.5 99.454,15.5 C96.612,15.5 95.024,13.578 95.024,10.315 C95.023,7.389 96.559,5.22 99.488,5.167 Z M101.366,9.47 C101.454,8.032 101.138,6.543 99.384,6.543 C98.182,6.543 97.182,7.301 96.954,9.47 L101.366,9.47 Z" id="Shape" fill="#161615"></path>
                    <path d="M157.316,5.167 C159.306,5.132 160.92,6.445 161,8.958 C161,9.717 161,10.308 160.904,10.757 L154.736,10.757 C154.736,10.819 154.746,10.871 154.746,10.933 C154.859,13.296 156.166,14.037 157.799,14.037 C158.465,14.037 159.799,13.781 160.289,13.491 L160.658,14.601 C160,15.139 158.482,15.5 157.281,15.5 C154.437,15.5 152.85,13.578 152.85,10.315 C152.851,7.389 154.386,5.22 157.316,5.167 Z M159.193,9.47 C159.281,8.032 158.964,6.543 157.211,6.543 C156.008,6.543 155.008,7.301 154.781,9.47 L159.193,9.47 Z" id="Shape" fill="#161615"></path>
                    <path d="M55.529,31.834 C57.521,31.799 59.134,33.112 59.214,35.625 C59.214,36.383 59.214,36.974 59.117,37.424 L52.95,37.424 C52.95,37.486 52.959,37.538 52.959,37.6 C53.073,39.962 54.38,40.704 56.012,40.704 C56.679,40.704 58.012,40.448 58.503,40.157 L58.872,41.268 C58.214,41.805 56.696,42.167 55.494,42.167 C52.652,42.167 51.064,40.244 51.064,36.982 C51.064,34.056 52.599,31.887 55.529,31.834 Z M57.407,36.137 C57.494,34.699 57.178,33.209 55.424,33.209 C54.222,33.209 53.222,33.967 52.994,36.137 L57.407,36.137 Z" id="Shape" fill="#161615"></path>
                    <path d="M100.917,31.834 C102.908,31.799 104.522,33.112 104.601,35.625 C104.601,36.383 104.601,36.974 104.505,37.424 L98.338,37.424 C98.338,37.486 98.347,37.538 98.347,37.6 C98.461,39.962 99.768,40.704 101.4,40.704 C102.067,40.704 103.4,40.448 103.891,40.157 L104.26,41.268 C103.602,41.805 102.084,42.167 100.883,42.167 C98.041,42.167 96.453,40.244 96.453,36.982 C96.452,34.056 97.987,31.887 100.917,31.834 Z M102.794,36.137 C102.881,34.699 102.565,33.209 100.811,33.209 C99.609,33.209 98.609,33.967 98.381,36.137 L102.794,36.137 Z" id="Shape" fill="#161615"></path>
                    <rect id="Rectangle-path" fill="#161615" x="122.734" y="5.333" width="1.93" height="10"></rect>
                    <path d="M138.383,5.167 C139.637,5.167 140.523,5.475 140.84,5.687 L140.532,7.221 C140.006,6.851 139.304,6.665 138.286,6.665 C136.909,6.665 135.505,7.644 135.417,10.095 C135.33,12.653 136.61,14.036 138.233,14.036 C139.233,14.036 140.171,13.719 140.618,13.445 L141.014,14.548 C140.4,15.121 139.207,15.5 137.944,15.5 C135.128,15.5 133.549,13.312 133.549,10.439 C133.549,7.477 135.164,5.167 138.383,5.167 Z" id="Shape" fill="#161615"></path>
                    <path d="M9.907,36.788 C9.951,33.561 11.898,31.833 14.469,31.833 C17.68,31.833 18.899,34.346 18.864,37.211 C18.812,40.439 16.873,42.167 14.294,42.167 C11.091,42.167 9.872,39.653 9.907,36.788 Z M16.907,37.123 C16.907,34.973 16.144,33.253 14.424,33.227 C12.74,33.192 11.863,34.497 11.863,36.815 C11.863,38.966 12.644,40.756 14.345,40.792 C16.039,40.826 16.907,39.451 16.907,37.123 Z" id="Shape" fill="#161615"></path>
                    <path d="M69.559,33.456 L68.26,33.456 L68.26,32.359 C69.137,32.105 69.532,32.07 69.742,31.5 C69.9,31.097 70.075,30.465 70.321,29.667 L71.479,29.667 L71.479,32 L74.303,32 L74.303,33.456 L71.48,33.456 L71.48,38.544 C71.48,40.465 71.629,40.623 72.585,40.623 C73.103,40.623 73.962,40.421 74.295,40.246 L74.628,41.35 C74.085,41.754 72.874,42.166 71.865,42.166 C70.575,42.166 69.558,41.701 69.558,39.631 L69.558,33.456 L69.559,33.456 Z" id="Shape" fill="#161615"></path>
                    <path d="M76.98,33.456 L75.462,33.456 L75.462,32 L76.98,32 L76.98,31.386 C76.98,28.395 78.997,27.5 80.603,27.5 C81.147,27.5 81.665,27.623 81.849,27.693 L81.849,29.219 C81.49,29.096 81.121,29.043 80.341,29.043 C79.507,29.043 78.911,29.675 78.911,30.946 L78.911,32 L81.385,32 L81.385,33.456 L78.91,33.456 L78.91,42 L76.98,42 L76.98,33.456 Z" id="Shape" fill="#161615"></path>
                    <polygon id="Shape" fill="#000000" points="15.969 5.333 13.374 13.096 10.671 5.333 8.592 5.333 12.502 15.333 14.233 15.333 18.022 5.333"></polygon>
                    <polygon id="Shape" fill="#000000" points="7.544 32 4.949 39.762 2.246 32 0.167 32 4.077 42 5.808 42 9.597 32"></polygon>
                    <path d="M22.795,5.167 C21.242,5.167 19.488,5.859 19.119,6.088 L19.593,7.351 C20.049,7.026 21.418,6.622 22.295,6.622 C23.742,6.622 24.426,6.842 24.426,8.271 L24.426,9.324 C23.295,9.324 21.777,9.509 20.619,9.973 C19.426,10.464 18.672,11.385 18.672,12.683 C18.672,14.438 19.962,15.499 21.734,15.499 C22.839,15.499 23.861,15.07 24.427,14.614 L24.427,15.332 L26.357,15.332 L26.357,8.35 C26.356,5.728 24.918,5.167 22.795,5.167 Z M22.304,14.062 C21.137,14.062 20.576,13.536 20.576,12.518 C20.576,11.746 21.041,11.342 21.69,11.036 C22.409,10.693 23.699,10.554 24.427,10.554 L24.427,13.352 C24.225,13.588 23.198,14.062 22.304,14.062 Z" id="Shape" fill="#161615"></path>
                    <path d="M86.421,31.833 C84.869,31.833 83.114,32.526 82.746,32.754 L83.22,34.018 C83.676,33.693 85.045,33.289 85.922,33.289 C87.37,33.289 88.054,33.509 88.054,34.938 L88.054,35.991 C86.923,35.991 85.405,36.176 84.247,36.64 C83.054,37.131 82.3,38.052 82.3,39.35 C82.3,41.105 83.59,42.166 85.362,42.166 C86.467,42.166 87.489,41.737 88.055,41.28 L88.055,42 L89.985,42 L89.985,35.018 C89.982,32.395 88.544,31.833 86.421,31.833 Z M85.93,40.729 C84.763,40.729 84.202,40.202 84.202,39.185 C84.202,38.413 84.667,38.009 85.316,37.703 C86.035,37.36 87.325,37.22 88.053,37.22 L88.053,40.019 C87.851,40.254 86.825,40.729 85.93,40.729 Z" id="Shape" fill="#161615"></path>
                    <path d="M34.12,5.168 C32.922,5.2 31.622,5.771 30.839,6.257 L30.839,5.333 L28.909,5.333 L28.909,15.333 L30.839,15.333 L30.839,7.694 C31.637,7.115 32.637,6.791 33.296,6.764 C34.858,6.676 35.164,7.413 35.164,9.08 L35.164,15.332 L37.094,15.332 L37.094,9.089 C37.094,6.159 36.278,5.116 34.12,5.168 Z" id="Shape" fill="#161615"></path>
                    <path d="M25.999,31.835 C24.801,31.867 23.501,32.438 22.718,32.924 L22.718,32 L20.788,32 L20.788,42 L22.718,42 L22.718,34.361 C23.517,33.782 24.517,33.458 25.175,33.431 C26.736,33.343 27.044,34.08 27.044,35.746 L27.044,42 L28.974,42 L28.974,35.756 C28.972,32.826 28.156,31.782 25.999,31.835 Z" id="Shape" fill="#161615"></path>
                    <path d="M111.777,31.835 C110.579,31.867 109.279,32.438 108.496,32.924 L108.496,32 L106.566,32 L106.566,42 L108.496,42 L108.496,34.361 C109.294,33.782 110.294,33.458 110.952,33.431 C112.514,33.343 112.82,34.08 112.82,35.746 L112.82,42 L114.750001,42 L114.75,35.756 C114.751,32.826 113.935,31.782 111.777,31.835 Z" id="Shape" fill="#161615"></path>
                    <circle id="Oval" fill="#161615" cx="64.932" cy="2" r="1.167"></circle>
                    <circle id="Oval" fill="#161615" cx="123.699" cy="2" r="1.167"></circle>
                    <path d="M131.91,5.167 C130.925,5.167 129.881,5.751 129.384,6.232 L129.384,5.333 L127.454,5.333 L127.454,15.333 L129.384,15.333 L129.384,7.692 C129.822,7.289 130.586,6.859 131.569,6.859 C132.393,6.859 132.709,7 132.884,7.095 L132.884,5.288 C132.708,5.21 132.383,5.167 131.91,5.167 Z" id="Shape" fill="#161615"></path>
                    <polygon id="Shape" fill="#000000" points="48.833 28.667 46.437 39.153 43.348 28.667 41.889 28.667 38.914 38.909 36.405 28.667 34.398 28.667 38.031 42 39.751 42 42.613 32.295 45.433 42 47.389 42 50.796 28.667"></polygon>
                    <path d="M121.123,15.333 C119.891,13.155 117.026,9.149 116.171,7.745 L120.892,2 L118.585,2 L113.302,8.693 L113.302,2 L111.346,2 L111.346,15.333 L113.302,15.333 L113.302,11.122 L114.96,9.193 C115.925,10.714 117.873,13.48 118.911,15.333 L121.123,15.333 Z" id="Shape" fill="#161615"></path>
                </g>
            </g>
            <g id="Bildmarke" transform="translate(201.000000, 2.000000)">
                <rect id="Rectangle-path" fill="#e50039" x="0" y="0" width="40" height="40"></rect>
                <rect id="Rectangle-path" fill="#0b3f73" x="40" y="40" width="40" height="80"></rect>
            </g>
        </g>
    </g>
</svg>
