<svg width="387px" height="115px" viewBox="0 0 387 115" version="1.1" xmlns="http://www.w3.org/2000/svg" xmlns:xlink="http://www.w3.org/1999/xlink">
                                    <g stroke="none" stroke-width="1" fill="none" fill-rule="evenodd">
									<g transform="translate(-1014.000000, -40.000000)">
										<g transform="translate(1014.000000, 40.000000)">
											<g>
												<g transform="translate(0.000000, 50.000000)" fill="#000000" fill-rule="nonzero" class="text">
													<polygon points="0.770666667 1.35384615 8.024 1.35384615 8.024 2.47692308 2.20622222 2.47692308 2.20622222 7.10769231 6.45244444 7.10769231 6.45244444 8.23076923 2.20622222 8.23076923 2.20622222 13.2769231 8.64355556 13.2769231 8.64355556 14.4153846 0.770666667 14.4153846 0.770666667 1.35384615"></polygon>
													<path d="M107.636444,14.4307692 L107.636444,10.2461538 L109.570667,7.96923077 C110.522667,9.46153846 112.608,12.5230769 113.696,14.4307692 L115.297778,14.4307692 C114.088889,12.3076923 111.293333,8.24615385 110.462222,6.90769231 L115.040889,1.35384615 L113.333333,1.35384615 L107.621333,8.41538462 L107.621333,1.35384615 L106.185778,1.35384615 L106.185778,14.4307692 L107.636444,14.4307692 Z"></path>
													<path d="M227.376889,5.70769231 L226.032,5.70769231 L226.032,4.87692308 C226.651556,4.69230769 227.361778,4.66153846 227.512889,4.24615385 C227.618667,3.95384615 227.754667,2.90769231 227.936,2.33846154 L228.782222,2.33846154 L228.782222,4.63076923 L231.774222,4.63076923 L231.774222,5.72307692 L228.782222,5.72307692 L228.782222,11.3384615 C228.782222,13.2769231 229.114667,13.4615385 230.066667,13.4615385 C230.640889,13.4615385 231.547556,13.2 231.88,12.9692308 L232.121778,13.8 C231.638222,14.2 230.459556,14.6153846 229.583111,14.6153846 C228.404444,14.6153846 227.392,14.2615385 227.392,12.1538462 L227.392,5.70769231 L227.376889,5.70769231 Z"></path>
													<path d="M234.554667,5.70769231 L232.892444,5.70769231 L232.892444,4.61538462 L234.554667,4.61538462 L234.554667,4.07692308 C234.554667,1.16923077 236.322667,0.2 237.864,0.2 C238.377778,0.2 238.831111,0.307692308 239.012444,0.384615385 L239.012444,1.52307692 C238.710222,1.41538462 238.332444,1.35384615 237.667556,1.35384615 C236.655111,1.35384615 235.96,2.16923077 235.96,3.76923077 L235.96,4.61538462 L238.528889,4.61538462 L238.528889,5.70769231 L235.96,5.70769231 L235.96,14.4307692 L234.554667,14.4307692 L234.554667,5.70769231 Z"></path>
													<path d="M64.4337778,12.8 C64.7964444,13.0615385 66.0355556,13.5076923 67.2142222,13.5230769 C68.4533333,13.5230769 69.3297778,13.0153846 69.3297778,11.9846154 C69.3297778,10.9538462 68.1813333,10.4923077 67.0328889,10.0153846 C65.552,9.4 64.2826667,8.55384615 64.2977778,6.93846154 C64.328,5.24615385 65.8542222,4.46153846 67.6675556,4.44615385 C68.7857778,4.43076923 69.8133333,4.75384615 70.1457778,4.95384615 L69.904,6.04615385 C69.5715556,5.78461538 68.6648889,5.50769231 67.7128889,5.50769231 C66.3377778,5.50769231 65.6124444,6.07692308 65.6124444,6.84615385 C65.5973333,7.89230769 66.4737778,8.38461538 67.7128889,8.87692308 C68.9822222,9.38461538 70.6444444,10.1692308 70.6444444,11.8769231 C70.6444444,13.6 69.3297778,14.5846154 67.2746667,14.5846154 C66.0355556,14.5846154 64.7662222,14.2461538 64.2071111,13.8769231 L64.4337778,12.8 Z"></path>
													<path d="M218.808889,12.8 C219.171556,13.0615385 220.410667,13.5076923 221.589333,13.5230769 C222.828444,13.5230769 223.704889,13.0153846 223.704889,11.9846154 C223.704889,10.9538462 222.556444,10.4923077 221.408,10.0153846 C219.927111,9.4 218.657778,8.55384615 218.672889,6.93846154 C218.703111,5.24615385 220.229333,4.46153846 222.042667,4.44615385 C223.160889,4.43076923 224.188444,4.75384615 224.520889,4.95384615 L224.279111,6.04615385 C223.946667,5.78461538 223.04,5.50769231 222.088,5.50769231 C220.712889,5.50769231 219.987556,6.07692308 219.987556,6.84615385 C219.972444,7.89230769 220.848889,8.38461538 222.088,8.87692308 C223.357333,9.38461538 225.019556,10.1692308 225.019556,11.8769231 C225.019556,13.6 223.704889,14.5846154 221.649778,14.5846154 C220.410667,14.5846154 219.141333,14.2461538 218.582222,13.8769231 L218.808889,12.8 Z"></path>
													<path d="M172.901333,4.46153846 C175.908444,4.46153846 177.117333,6.87692308 177.087111,9.67692308 C177.041778,12.8153846 175.213333,14.6153846 172.72,14.6153846 C169.652444,14.6153846 168.488889,12.1538462 168.519111,9.36923077 C168.564444,6.2 170.453333,4.46153846 172.901333,4.46153846 Z M175.651556,9.6 C175.651556,7.33846154 174.790222,5.52307692 172.871111,5.49230769 C171.057778,5.46153846 169.969778,6.89230769 169.954667,9.35384615 C169.939556,11.6 170.785778,13.5384615 172.750222,13.5538462 C174.593778,13.6 175.651556,12.0769231 175.651556,9.6 Z"></path>
													<path d="M51.0302222,4.46153846 C53.0702222,4.43076923 54.4302222,5.90769231 54.4906667,8.16923077 C54.4906667,8.8 54.4906667,9.27692308 54.4151111,9.67692308 L48.0835556,9.67692308 C48.0835556,9.78461538 48.0835556,9.90769231 48.0986667,10.0153846 C48.1893333,12.5538462 49.4888889,13.5076923 51.272,13.5076923 C52.1484444,13.5076923 53.3875556,13.1846154 53.8862222,12.8461538 L54.1582222,13.6923077 C53.5235556,14.2307692 52.1031111,14.6 50.9093333,14.6 C48.2044444,14.6 46.7084444,12.7384615 46.7084444,9.56923077 C46.7235556,6.6 48.2648889,4.49230769 51.0302222,4.46153846 Z M53.1608889,8.70769231 C53.2666667,6.89230769 52.6924444,5.49230769 50.9395556,5.49230769 C49.504,5.49230769 48.4008889,6.43076923 48.144,8.70769231 L53.1608889,8.70769231 Z"></path>
													<path d="M94.8222222,4.46153846 C96.8622222,4.43076923 98.2222222,5.90769231 98.2826667,8.16923077 C98.2826667,8.8 98.2826667,9.27692308 98.2071111,9.67692308 L91.8755556,9.67692308 C91.8755556,9.78461538 91.8755556,9.90769231 91.8906667,10.0153846 C91.9813333,12.5538462 93.2808889,13.5076923 95.064,13.5076923 C95.9404444,13.5076923 97.1795556,13.1846154 97.6782222,12.8461538 L97.9502222,13.6923077 C97.3155556,14.2307692 95.8951111,14.6 94.7013333,14.6 C91.9964444,14.6 90.5004444,12.7384615 90.5004444,9.56923077 C90.5004444,6.6 92.0568889,4.49230769 94.8222222,4.46153846 Z M96.9528889,8.70769231 C97.0586667,6.89230769 96.4844444,5.49230769 94.7315556,5.49230769 C93.296,5.49230769 92.1928889,6.43076923 91.936,8.70769231 L96.9528889,8.70769231 Z"></path>
													<path d="M76.4924444,4.46153846 C77.6257778,4.46153846 78.5022222,4.73846154 78.8346667,4.96923077 L78.5928889,6.10769231 C78.1244444,5.75384615 77.3235556,5.56923077 76.4168889,5.56923077 C74.8302222,5.56923077 73.3795556,6.8 73.3191111,9.38461538 C73.2586667,12.1384615 74.6942222,13.5076923 76.3262222,13.5076923 C77.4444444,13.5076923 78.3511111,13.1076923 78.7591111,12.8307692 L79.0613333,13.6615385 C78.4568889,14.2307692 77.3386667,14.6 76.1146667,14.6 C73.4551111,14.6 71.944,12.4923077 71.944,9.67692308 C71.9288889,6.69230769 73.5457778,4.46153846 76.4924444,4.46153846 Z"></path>
													<polygon points="56.6364444 1.35384615 58.0417778 1.35384615 58.0417778 14.4307692 56.6364444 14.4307692"></polygon>
													<polygon points="249.56 1.35384615 250.965333 1.35384615 250.965333 14.4307692 249.56 14.4307692"></polygon>
													<path d="M45.8924444,4.61538462 L44.9857778,4.61538462 C44.3511111,4.61538462 43.6711111,4.78461538 43.248,4.98461538 C42.6133333,4.61538462 41.8124444,4.44615385 40.9813333,4.46153846 C38.9262222,4.50769231 37.2488889,5.55384615 37.2488889,7.89230769 C37.2488889,9.12307692 37.8684444,10.0923077 38.8355556,10.6307692 C38.1555556,11.1384615 37.6871111,11.9076923 37.6871111,12.5692308 C37.672,13.1384615 37.808,13.6923077 38.4124444,14.0461538 C37.808,14.3846154 37.0675556,15.0769231 37.0675556,16.0769231 C37.0675556,18.0307692 38.6542222,18.8615385 41.1022222,18.8615385 C43.6711111,18.8769231 45.7564444,17.6615385 45.7564444,15.7076923 C45.7564444,14.4769231 45.2124444,13.3076923 42.4471111,13.3076923 L40.3617778,13.3076923 C39.3342222,13.3076923 38.9866667,13.0461538 38.9866667,12.2153846 C38.9866667,11.7230769 39.304,11.2153846 39.6213333,10.9692308 C40.0142222,11.0923077 40.4524444,11.1538462 40.9208889,11.1538462 C43.0364444,11.1538462 44.7288889,9.95384615 44.7288889,7.72307692 C44.7288889,6.93846154 44.5173333,6.29230769 44.1546667,5.78461538 L45.8924444,5.78461538 L45.8924444,4.61538462 Z M39.2284444,14.3538462 C39.576,14.4153846 40.0142222,14.4461538 40.5733333,14.4461538 L41.8728889,14.4461538 C43.7768889,14.4461538 44.4115556,14.8923077 44.4115556,16.0153846 C44.4115556,17.2769231 42.8248889,17.8769231 41.1626667,17.8769231 C39.3342222,17.8769231 38.4426667,17.2923077 38.4426667,15.9076923 C38.4426667,15.1230769 38.8506667,14.6615385 39.2284444,14.3538462 Z M40.9511111,10.1692308 C39.44,10.1692308 38.6542222,9.15384615 38.6542222,7.81538462 C38.6542222,5.98461538 39.8026667,5.44615385 41.0568889,5.44615385 C42.4622222,5.43076923 43.3386667,6.2 43.3386667,7.76923077 C43.3386667,9.50769231 42.3564444,10.1692308 40.9511111,10.1692308 Z"></path>
													<path d="M125.392,4.46153846 C124.258667,4.46153846 123.08,5.24615385 122.581333,5.76923077 L122.581333,4.63076923 L121.176,4.63076923 L121.176,14.4461538 L122.581333,14.4461538 L122.581333,6.87692308 C123.064889,6.38461538 124.016889,5.73846154 125.135111,5.73846154 C125.830222,5.73846154 126.147556,5.84615385 126.298667,5.93846154 L126.298667,4.58461538 C126.147556,4.50769231 125.830222,4.46153846 125.392,4.46153846 Z"></path>
													<path d="M32.232,4.46153846 C30.9173333,4.49230769 29.5573333,5.24615385 28.832,5.76923077 L28.832,4.63076923 L27.4266667,4.63076923 L27.4266667,14.4461538 L28.832,14.4461538 L28.832,6.87692308 C29.5573333,6.27692308 30.736,5.69230769 31.6426667,5.67692308 C33.2897778,5.61538462 33.6977778,6.41538462 33.6977778,8.36923077 L33.6977778,14.4615385 L35.1031111,14.4615385 L35.1031111,8.38461538 C35.1182222,5.46153846 34.3173333,4.43076923 32.232,4.46153846 Z"></path>
													<path d="M183.932444,4.46153846 C182.617778,4.49230769 181.257778,5.24615385 180.532444,5.76923077 L180.532444,4.63076923 L179.127111,4.63076923 L179.127111,14.4461538 L180.532444,14.4461538 L180.532444,6.87692308 C181.257778,6.27692308 182.436444,5.69230769 183.343111,5.67692308 C184.990222,5.61538462 185.398222,6.41538462 185.398222,8.36923077 L185.398222,14.4615385 L186.803556,14.4615385 L186.803556,8.38461538 C186.803556,5.46153846 186.032889,4.43076923 183.932444,4.46153846 Z"></path>
													<path d="M267.753778,4.46153846 C266.439111,4.49230769 265.079111,5.24615385 264.353778,5.76923077 L264.353778,4.63076923 L262.933333,4.63076923 L262.933333,14.4461538 L264.338667,14.4461538 L264.338667,6.87692308 C265.064,6.27692308 266.242667,5.69230769 267.149333,5.67692308 C268.796444,5.61538462 269.204444,6.41538462 269.204444,8.36923077 L269.204444,14.4615385 L270.609778,14.4615385 L270.609778,8.38461538 C270.624889,5.46153846 269.839111,4.43076923 267.753778,4.46153846 Z"></path>
													<path d="M85.4835556,4.46153846 C84.1688889,4.49230769 82.8088889,5.24615385 82.0835556,5.76923077 L82.0835556,1.35384615 L80.6782222,1.35384615 L80.6782222,14.4307692 L82.0835556,14.4307692 L82.0835556,6.86153846 C82.8088889,6.26153846 83.9875556,5.67692308 84.8942222,5.66153846 C86.5413333,5.6 86.9493333,6.4 86.9493333,8.35384615 L86.9493333,14.4461538 L88.3546667,14.4461538 L88.3546667,8.36923077 C88.3697778,5.46153846 87.584,4.43076923 85.4835556,4.46153846 Z"></path>
													<path d="M149.781333,4.46153846 C151.821333,4.43076923 153.181333,5.90769231 153.241778,8.16923077 C153.241778,8.8 153.241778,9.27692308 153.166222,9.67692308 L146.849778,9.67692308 C146.849778,9.78461538 146.849778,9.90769231 146.864889,10.0153846 C146.955556,12.5538462 148.255111,13.5076923 150.038222,13.5076923 C150.914667,13.5076923 152.153778,13.1846154 152.652444,12.8461538 L152.924444,13.6923077 C152.289778,14.2307692 150.854222,14.6 149.675556,14.6 C146.970667,14.6 145.474667,12.7384615 145.474667,9.56923077 C145.459556,6.6 147.000889,4.49230769 149.781333,4.46153846 Z M151.912,8.70769231 C152.017778,6.89230769 151.443556,5.49230769 149.690667,5.49230769 C148.255111,5.49230769 147.152,6.43076923 146.895111,8.70769231 L151.912,8.70769231 Z"></path>
													<path d="M213.716444,4.46153846 C215.756444,4.43076923 217.116444,5.90769231 217.176889,8.16923077 C217.176889,8.8 217.176889,9.27692308 217.101333,9.67692308 L210.784889,9.67692308 C210.784889,9.78461538 210.784889,9.90769231 210.784889,10.0153846 C210.875556,12.5538462 212.175111,13.5076923 213.958222,13.5076923 C214.834667,13.5076923 216.073778,13.1846154 216.572444,12.8461538 L216.844444,13.6923077 C216.209778,14.2307692 214.774222,14.6 213.595556,14.6 C210.890667,14.6 209.394667,12.7384615 209.394667,9.56923077 C209.394667,6.6 210.951111,4.49230769 213.716444,4.46153846 Z M215.847111,8.70769231 C215.952889,6.89230769 215.378667,5.49230769 213.625778,5.49230769 C212.190222,5.49230769 211.087111,6.43076923 210.830222,8.70769231 L215.847111,8.70769231 Z"></path>
													<path d="M257.432889,4.46153846 C259.472889,4.43076923 260.832889,5.90769231 260.893333,8.16923077 C260.893333,8.8 260.893333,9.27692308 260.817778,9.67692308 L254.501333,9.67692308 C254.501333,9.78461538 254.501333,9.90769231 254.501333,10.0153846 C254.592,12.5538462 255.891556,13.5076923 257.674667,13.5076923 C258.551111,13.5076923 259.790222,13.1846154 260.288889,12.8461538 L260.560889,13.6923077 C259.926222,14.2307692 258.490667,14.6 257.312,14.6 C254.607111,14.6 253.111111,12.7384615 253.111111,9.56923077 C253.111111,6.6 254.667556,4.49230769 257.432889,4.46153846 Z M259.563556,8.70769231 C259.669333,6.89230769 259.095111,5.49230769 257.342222,5.49230769 C255.906667,5.49230769 254.803556,6.43076923 254.546667,8.70769231 L259.563556,8.70769231 Z"></path>
													<path d="M131.436444,4.46153846 C132.569778,4.46153846 133.446222,4.73846154 133.778667,4.96923077 L133.536889,6.10769231 C133.068444,5.75384615 132.267556,5.56923077 131.360889,5.56923077 C129.774222,5.56923077 128.323556,6.8 128.263111,9.38461538 C128.202667,12.1384615 129.638222,13.5076923 131.270222,13.5076923 C132.388444,13.5076923 133.295111,13.1076923 133.703111,12.8307692 L134.005333,13.6615385 C133.400889,14.2307692 132.282667,14.6 131.058667,14.6 C128.399111,14.6 126.888,12.4923077 126.888,9.67692308 C126.888,6.69230769 128.504889,4.46153846 131.436444,4.46153846 Z"></path>
													<path d="M140.427556,4.46153846 C139.112889,4.49230769 137.752889,5.24615385 137.027556,5.76923077 L137.027556,1.35384615 L135.622222,1.35384615 L135.622222,14.4307692 L137.027556,14.4307692 L137.027556,6.86153846 C137.752889,6.26153846 138.931556,5.67692308 139.838222,5.66153846 C141.485333,5.6 141.893333,6.4 141.893333,8.35384615 L141.893333,14.4461538 L143.298667,14.4461538 L143.298667,8.36923077 C143.313778,5.46153846 142.528,4.43076923 140.427556,4.46153846 Z"></path>
													<polygon points="208.986667 1.35384615 207.551111 1.35384615 204.997333 12.4 201.748444 1.35384615 200.690667 1.35384615 197.517333 12.2615385 194.857778 1.35384615 193.392 1.35384615 196.837333 14.4307692 198.167111 14.4307692 201.219556 4.07692308 204.241778 14.4307692 205.722667 14.4307692"></polygon>
													<polygon points="13.0862222 14.4307692 16.7582222 4.61538462 15.2622222 4.61538462 12.4364444 12.8 9.48977778 4.61538462 7.97866667 4.61538462 11.7715556 14.4307692"></polygon>
													<polygon points="164.363556 14.4307692 168.035556 4.61538462 166.539556 4.61538462 163.698667 12.8 160.767111 4.61538462 159.240889 4.61538462 163.033778 14.4307692"></polygon>
													<path d="M21.5635556,4.46153846 C19.992,4.46153846 18.3448889,5.21538462 18.0275556,5.44615385 L18.3751111,6.4 C18.8888889,6.03076923 20.2337778,5.56923077 21.2008889,5.56923077 C22.6364444,5.56923077 23.4524444,5.84615385 23.4524444,7.43076923 L23.4524444,8.61538462 C22.44,8.61538462 20.8231111,8.76923077 19.6897778,9.18461538 C18.3448889,9.69230769 17.6044444,10.6 17.6044444,11.8923077 C17.6044444,13.6 18.8284444,14.6153846 20.536,14.6153846 C21.8506667,14.6153846 22.8933333,14.0923077 23.4373333,13.6307692 L23.4373333,14.4461538 L24.8426667,14.4461538 L24.8426667,7.47692308 C24.8426667,5.01538462 23.528,4.46153846 21.5635556,4.46153846 Z M20.944,13.5230769 C19.5537778,13.5230769 18.9946667,12.7846154 18.9946667,11.7538462 C18.9946667,10.8769231 19.4933333,10.3384615 20.4604444,9.96923077 C21.2764444,9.63076923 22.7573333,9.50769231 23.4373333,9.50769231 L23.4373333,12.6615385 C23.2257778,12.9076923 22.168,13.5230769 20.944,13.5230769 Z"></path>
													<path d="M243.621333,4.46153846 C242.064889,4.46153846 240.402667,5.21538462 240.085333,5.44615385 L240.432889,6.4 C240.946667,6.03076923 242.291556,5.56923077 243.258667,5.56923077 C244.694222,5.56923077 245.510222,5.84615385 245.510222,7.43076923 L245.510222,8.61538462 C244.497778,8.61538462 242.880889,8.76923077 241.747556,9.18461538 C240.402667,9.69230769 239.662222,10.6 239.662222,11.8923077 C239.662222,13.6 240.886222,14.6153846 242.593778,14.6153846 C243.908444,14.6153846 244.951111,14.0923077 245.495111,13.6307692 L245.495111,14.4461538 L246.900444,14.4461538 L246.900444,7.47692308 C246.915556,5.01538462 245.585778,4.46153846 243.621333,4.46153846 Z M243.016889,13.5230769 C241.626667,13.5230769 241.067556,12.7846154 241.067556,11.7538462 C241.067556,10.8769231 241.566222,10.3384615 242.533333,9.96923077 C243.349333,9.63076923 244.830222,9.50769231 245.510222,9.50769231 L245.510222,12.6615385 C245.298667,12.9076923 244.225778,13.5230769 243.016889,13.5230769 Z"></path>
													<path d="M60.8222222,14.4307692 L62.2275556,14.4307692 L62.2275556,4.61538462 L60.8222222,4.61538462 L60.8222222,14.4307692 Z M61.5173333,2.16923077 C62.0462222,2.16923077 62.4844444,1.72307692 62.4844444,1.18461538 C62.4844444,0.646153846 62.0462222,0.2 61.5173333,0.2 C60.9884444,0.2 60.5502222,0.646153846 60.5502222,1.18461538 C60.5502222,1.72307692 60.9884444,2.16923077 61.5173333,2.16923077 Z"></path>
													<path d="M117.141333,14.4307692 L118.546667,14.4307692 L118.546667,4.61538462 L117.141333,4.61538462 L117.141333,14.4307692 Z M117.836444,2.16923077 C118.365333,2.16923077 118.803556,1.72307692 118.803556,1.18461538 C118.803556,0.646153846 118.365333,0.2 117.836444,0.2 C117.307556,0.2 116.869333,0.646153846 116.869333,1.18461538 C116.869333,1.72307692 117.307556,2.16923077 117.836444,2.16923077 Z"></path>
												</g>
												<rect fill="#E4002B" fill-rule="nonzero" x="309" y="0" width="39" height="39"></rect>
												<rect fill="#005587" fill-rule="nonzero" x="348" y="38" width="39" height="77"></rect>
												<g transform="translate(0.000000, 24.000000)" fill="#000000" fill-rule="nonzero" class="text">
													<polygon points="215.877333 1.34909091 217.736 1.34909091 217.736 14.4854545 215.877333 14.4854545"></polygon>
													<polygon points="220.214222 1.34909091 222.072889 1.34909091 222.072889 14.4854545 220.214222 14.4854545"></polygon>
													<path d="M259.684444,6.06272727 L258.218667,6.06272727 L258.218667,4.62545455 L259.684444,4.62545455 L259.684444,4.02272727 C259.684444,1.07090909 261.633778,0.19 263.175111,0.19 C263.704,0.19 264.202667,0.313636364 264.368889,0.375454545 L264.368889,1.87454545 C264.021333,1.75090909 263.673778,1.70454545 262.918222,1.70454545 C262.117333,1.70454545 261.543111,2.32272727 261.543111,3.57454545 L261.543111,4.61 L263.930667,4.61 L263.930667,6.04727273 L261.543111,6.04727273 L261.543111,14.47 L259.684444,14.47 L259.684444,6.06272727 Z"></path>
													<path d="M253.488889,4.47090909 C251.992889,4.47090909 250.300444,5.15090909 249.952889,5.38272727 L250.406222,6.63454545 C250.844444,6.31 252.159111,5.92363636 253.005333,5.92363636 C254.395556,5.92363636 255.060444,6.14 255.060444,7.54636364 L255.060444,8.58181818 C253.972444,8.58181818 252.506667,8.76727273 251.388444,9.21545455 C250.24,9.69454545 249.514667,10.6063636 249.514667,11.8890909 C249.514667,13.62 250.753778,14.6709091 252.461333,14.6709091 C253.534222,14.6709091 254.516444,14.2536364 255.060444,13.8054545 L255.060444,14.5163636 L256.919111,14.5163636 L256.919111,7.63909091 C256.919111,5.02727273 255.528889,4.47090909 253.488889,4.47090909 Z M253.020444,13.2336364 C251.902222,13.2336364 251.358222,12.7081818 251.358222,11.7190909 C251.358222,10.9618182 251.811556,10.56 252.431111,10.2509091 C253.126222,9.91090909 254.365333,9.77181818 255.075556,9.77181818 L255.075556,12.5227273 C254.864,12.77 253.881778,13.2336364 253.020444,13.2336364 Z"></path>
													<path d="M10.4115556,4.47090909 C9.26311111,4.50181818 8.00888889,5.05818182 7.25333333,5.53727273 L7.25333333,4.62545455 L5.39466667,4.62545455 L5.39466667,14.4854545 L7.25333333,14.4854545 L7.25333333,6.95909091 C8.024,6.38727273 8.99111111,6.06272727 9.62577778,6.04727273 C11.1368889,5.95454545 11.424,6.68090909 11.424,8.33454545 L11.424,14.5009091 L13.2826667,14.5009091 L13.2826667,8.35 C13.2826667,5.44454545 12.4968889,4.42454545 10.4115556,4.47090909 Z"></path>
													<path d="M15.4133333,12.5227273 C15.6702222,12.7081818 16.8942222,13.2181818 18.1182222,13.2336364 C19.2515556,13.2490909 19.8711111,12.7854545 19.8711111,12.0127273 C19.8711111,11.2090909 18.9795556,10.73 17.8764444,10.2509091 C16.3351111,9.58636364 15.1715556,8.69 15.1866667,7.02090909 C15.2168889,5.30545455 16.7582222,4.45545455 18.6622222,4.45545455 C19.8257778,4.45545455 20.8231111,4.79545455 21.1102222,4.96545455 L20.808,6.40272727 C20.5057778,6.14 19.6293333,5.86181818 18.7226667,5.86181818 C17.544,5.86181818 16.9093333,6.27909091 16.8942222,6.92818182 C16.864,7.85545455 17.5893333,8.28818182 18.768,8.76727273 C20.0675556,9.30818182 21.5937778,10.1736364 21.5937778,11.8736364 C21.5937778,13.6663636 20.2791111,14.64 18.1937778,14.64 C16.8791111,14.64 15.5795556,14.2690909 15.1262222,13.9290909 L15.4133333,12.5227273 Z"></path>
													<path d="M198.847111,12.5227273 C199.104,12.7081818 200.328,13.2181818 201.552,13.2336364 C202.685333,13.2490909 203.304889,12.7854545 203.304889,12.0127273 C203.304889,11.2090909 202.413333,10.73 201.310222,10.2509091 C199.768889,9.58636364 198.605333,8.69 198.620444,7.02090909 C198.650667,5.30545455 200.192,4.45545455 202.096,4.45545455 C203.259556,4.45545455 204.256889,4.79545455 204.544,4.96545455 L204.241778,6.40272727 C203.939556,6.14 203.063111,5.86181818 202.156444,5.86181818 C200.977778,5.86181818 200.343111,6.27909091 200.328,6.92818182 C200.297778,7.85545455 201.023111,8.28818182 202.201778,8.76727273 C203.501333,9.30818182 205.027556,10.1736364 205.027556,11.8736364 C205.027556,13.6663636 203.712889,14.64 201.627556,14.64 C200.312889,14.64 199.013333,14.2690909 198.56,13.9290909 L198.847111,12.5227273 Z"></path>
													<path d="M224.188444,12.5227273 C224.445333,12.7081818 225.669333,13.2181818 226.893333,13.2336364 C228.026667,13.2490909 228.646222,12.7854545 228.646222,12.0127273 C228.646222,11.2090909 227.754667,10.73 226.666667,10.2509091 C225.125333,9.58636364 223.961778,8.69 223.976889,7.02090909 C224.007111,5.30545455 225.548444,4.45545455 227.452444,4.45545455 C228.616,4.45545455 229.613333,4.79545455 229.900444,4.96545455 L229.598222,6.40272727 C229.296,6.14 228.419556,5.86181818 227.512889,5.86181818 C226.334222,5.86181818 225.699556,6.27909091 225.684444,6.92818182 C225.654222,7.85545455 226.379556,8.28818182 227.558222,8.76727273 C228.857778,9.30818182 230.384,10.1736364 230.384,11.8736364 C230.384,13.6663636 229.069333,14.64 226.984,14.64 C225.669333,14.64 224.369778,14.2690909 223.916444,13.9290909 L224.188444,12.5227273 Z"></path>
													<path d="M23.5733333,6.06272727 L22.3191111,6.06272727 L22.3191111,4.98090909 C23.1653333,4.73363636 23.5431111,4.70272727 23.7546667,4.13090909 C23.9057778,3.72909091 24.072,3.11090909 24.3137778,2.32272727 L25.432,2.32272727 L25.432,4.62545455 L28.152,4.62545455 L28.152,6.06272727 L25.432,6.06272727 L25.432,11.0854545 C25.432,12.9863636 25.5831111,13.1409091 26.5048889,13.1409091 C27.0035556,13.1409091 27.8346667,12.94 28.152,12.77 L28.4693333,13.8518182 C27.9404444,14.2536364 26.7768889,14.6554545 25.8097778,14.6554545 C24.5706667,14.6554545 23.5884444,14.1918182 23.5884444,12.1518182 L23.5884444,6.06272727 L23.5733333,6.06272727 Z"></path>
													<path d="M34.4986667,6.06272727 L33.2444444,6.06272727 L33.2444444,4.98090909 C34.0906667,4.73363636 34.4684444,4.70272727 34.68,4.13090909 C34.8311111,3.72909091 34.9973333,3.11090909 35.2391111,2.32272727 L36.3573333,2.32272727 L36.3573333,4.62545455 L39.0773333,4.62545455 L39.0773333,6.06272727 L36.3573333,6.06272727 L36.3573333,11.0854545 C36.3573333,12.9863636 36.4933333,13.1409091 37.4151111,13.1409091 C37.9137778,13.1409091 38.7448889,12.94 39.0622222,12.77 L39.3795556,13.8518182 C38.8506667,14.2536364 37.6871111,14.6554545 36.72,14.6554545 C35.4808889,14.6554545 34.4986667,14.1918182 34.4986667,12.1518182 L34.4986667,6.06272727 L34.4986667,6.06272727 Z"></path>
													<path d="M50.6071111,6.06272727 L49.3528889,6.06272727 L49.3528889,4.98090909 C50.1991111,4.73363636 50.5768889,4.70272727 50.7884444,4.13090909 C50.9395556,3.72909091 51.1057778,3.11090909 51.3475556,2.32272727 L52.4657778,2.32272727 L52.4657778,4.62545455 L55.1857778,4.62545455 L55.1857778,6.06272727 L52.4657778,6.06272727 L52.4657778,11.0854545 C52.4657778,12.9863636 52.6017778,13.1409091 53.5235556,13.1409091 C54.0222222,13.1409091 54.8533333,12.94 55.1706667,12.77 L55.488,13.8518182 C54.9591111,14.2536364 53.7955556,14.6554545 52.8284444,14.6554545 C51.5893333,14.6554545 50.6071111,14.1918182 50.6071111,12.1518182 L50.6071111,6.06272727 L50.6071111,6.06272727 Z"></path>
													<path d="M266.061333,6.06272727 L264.807111,6.06272727 L264.807111,4.98090909 C265.653333,4.73363636 266.031111,4.70272727 266.242667,4.13090909 C266.393778,3.72909091 266.56,3.11090909 266.801778,2.32272727 L267.92,2.32272727 L267.92,4.62545455 L270.64,4.62545455 L270.64,6.06272727 L267.92,6.06272727 L267.92,11.0854545 C267.92,12.9863636 268.071111,13.1409091 268.992889,13.1409091 C269.491556,13.1409091 270.322667,12.94 270.64,12.77 L270.957333,13.8518182 C270.428444,14.2536364 269.264889,14.6554545 268.297778,14.6554545 C267.058667,14.6554545 266.076444,14.1918182 266.076444,12.1518182 L266.076444,6.06272727 L266.061333,6.06272727 Z"></path>
													<path d="M29.7991111,14.4854545 L31.6577778,14.4854545 L31.6577778,4.62545455 L29.7991111,4.62545455 L29.7991111,14.4854545 Z M30.7208889,2.49272727 C31.3404444,2.49272727 31.8391111,1.98272727 31.8391111,1.34909091 C31.8391111,0.715454545 31.3404444,0.205454545 30.7208889,0.205454545 C30.1013333,0.205454545 29.6026667,0.715454545 29.6026667,1.34909091 C29.6026667,1.98272727 30.1013333,2.49272727 30.7208889,2.49272727 Z"></path>
													<path d="M63.1946667,6.06272727 L61.7288889,6.06272727 L61.7288889,4.62545455 L63.1946667,4.62545455 L63.1946667,4.02272727 C63.1946667,1.07090909 65.144,0.19 66.6853333,0.19 C67.2142222,0.19 67.7128889,0.313636364 67.8791111,0.375454545 L67.8791111,1.87454545 C67.5315556,1.75090909 67.184,1.70454545 66.4284444,1.70454545 C65.6275556,1.70454545 65.0533333,2.32272727 65.0533333,3.57454545 L65.0533333,4.61 L67.4408889,4.61 L67.4408889,6.04727273 L65.0533333,6.04727273 L65.0533333,14.47 L63.1946667,14.47 L63.1946667,6.06272727 L63.1946667,6.06272727 Z"></path>
													<path d="M82.9146667,4.47090909 C81.9626667,4.47090909 80.9653333,5.04272727 80.4817778,5.52181818 L80.4817778,4.64090909 L78.6231111,4.64090909 L78.6231111,14.5009091 L80.4817778,14.5009091 L80.4817778,6.97454545 C80.9048889,6.57272727 81.6453333,6.15545455 82.5822222,6.15545455 C83.3831111,6.15545455 83.6853333,6.29454545 83.8515556,6.38727273 L83.8515556,4.61 C83.6853333,4.51727273 83.3831111,4.47090909 82.9146667,4.47090909 Z"></path>
													<path d="M133.567111,4.47090909 C135.486222,4.44 137.042667,5.73818182 137.118222,8.21090909 C137.118222,8.95272727 137.118222,9.54 137.027556,9.98818182 L131.088889,9.98818182 C131.088889,10.05 131.104,10.0963636 131.104,10.1581818 C131.209778,12.4918182 132.479111,13.2181818 134.050667,13.2181818 C134.700444,13.2181818 135.984889,12.9709091 136.453333,12.6772727 L136.816,13.7745455 C136.181333,14.3 134.715556,14.6554545 133.567111,14.6554545 C130.832,14.6554545 129.290667,12.7545455 129.290667,9.54 C129.260444,6.66545455 130.741333,4.51727273 133.567111,4.47090909 Z M135.365333,8.70545455 C135.456,7.28363636 135.138667,5.81545455 133.461333,5.81545455 C132.297778,5.81545455 131.345778,6.55727273 131.119111,8.70545455 L135.365333,8.70545455 Z"></path>
													<path d="M193.875556,4.47090909 C195.794667,4.44 197.351111,5.73818182 197.426667,8.21090909 C197.426667,8.95272727 197.426667,9.54 197.336,9.98818182 L191.397333,9.98818182 C191.397333,10.05 191.412444,10.0963636 191.412444,10.1581818 C191.518222,12.4918182 192.787556,13.2181818 194.359111,13.2181818 C194.993778,13.2181818 196.293333,12.9709091 196.761778,12.6772727 L197.124444,13.7745455 C196.489778,14.3 195.024,14.6554545 193.875556,14.6554545 C191.140444,14.6554545 189.599111,12.7545455 189.599111,9.54 C189.568889,6.66545455 191.049778,4.51727273 193.875556,4.47090909 Z M195.688889,8.70545455 C195.779556,7.28363636 195.462222,5.81545455 193.784889,5.81545455 C192.621333,5.81545455 191.669333,6.55727273 191.442667,8.70545455 L195.688889,8.70545455 Z"></path>
													<path d="M210.422222,4.47090909 C212.341333,4.44 213.897778,5.73818182 213.973333,8.21090909 C213.973333,8.95272727 213.973333,9.54 213.882667,9.98818182 L207.944,9.98818182 C207.944,10.05 207.959111,10.0963636 207.959111,10.1581818 C208.064889,12.4918182 209.334222,13.2181818 210.905778,13.2181818 C211.540444,13.2181818 212.84,12.9709091 213.308444,12.6772727 L213.656,13.7745455 C213.021333,14.3 211.555556,14.6554545 210.407111,14.6554545 C207.672,14.6554545 206.130667,12.7545455 206.130667,9.54 C206.115556,6.66545455 207.596444,4.51727273 210.422222,4.47090909 Z M212.220444,8.70545455 C212.311111,7.28363636 211.993778,5.81545455 210.316444,5.81545455 C209.152889,5.81545455 208.200889,6.55727273 207.974222,8.70545455 L212.220444,8.70545455 Z"></path>
													<path d="M100.896889,14.4854545 L102.755556,14.4854545 L102.755556,4.62545455 L100.896889,4.62545455 L100.896889,14.4854545 Z M101.818667,2.49272727 C102.438222,2.49272727 102.936889,1.98272727 102.936889,1.34909091 C102.936889,0.715454545 102.438222,0.205454545 101.818667,0.205454545 C101.199111,0.205454545 100.700444,0.715454545 100.700444,1.34909091 C100.700444,1.98272727 101.199111,2.49272727 101.818667,2.49272727 Z"></path>
													<path d="M99.552,14.4854545 C98.3582222,12.3372727 95.608,8.39636364 94.7768889,7.00545455 L99.3253333,1.34909091 L97.104,1.34909091 L92.0115556,7.94818182 L92.0115556,1.34909091 L90.1226667,1.34909091 L90.1226667,14.4854545 L92.0115556,14.4854545 L92.0115556,10.3281818 L93.6133333,8.42727273 C94.5502222,9.92636364 96.424,12.6463636 97.4213333,14.4854545 L99.552,14.4854545 L99.552,14.4854545 Z"></path>
													<path d="M109.540444,4.47090909 C108.588444,4.47090909 107.591111,5.04272727 107.107556,5.52181818 L107.107556,4.64090909 L105.248889,4.64090909 L105.248889,14.5009091 L107.107556,14.5009091 L107.107556,6.97454545 C107.530667,6.57272727 108.271111,6.15545455 109.208,6.15545455 C110.008889,6.15545455 110.311111,6.29454545 110.477333,6.38727273 L110.477333,4.61 C110.311111,4.51727273 109.993778,4.47090909 109.540444,4.47090909 Z"></path>
													<path d="M124.560889,4.47090909 C123.412444,4.50181818 122.173333,4.99636364 121.417778,5.53727273 L121.417778,1.34909091 L119.559111,1.34909091 L119.559111,14.4854545 L121.417778,14.4854545 L121.417778,6.95909091 C122.188444,6.38727273 123.170667,6.07818182 123.790222,6.06272727 C125.256,6.00090909 125.664,6.72727273 125.664,8.33454545 L125.664,14.5009091 L127.522667,14.5009091 L127.522667,8.47363636 C127.537778,5.58363636 126.661333,4.42454545 124.560889,4.47090909 Z"></path>
													<path d="M115.675556,4.47090909 C116.884444,4.47090909 117.730667,4.78 118.048,4.98090909 L117.745778,6.49545455 C117.232,6.12454545 116.567111,5.95454545 115.584889,5.95454545 C114.255111,5.95454545 112.910222,6.91272727 112.819556,9.33909091 C112.728889,11.8581818 113.968,13.2181818 115.539556,13.2181818 C116.506667,13.2181818 117.413333,12.9090909 117.836444,12.6309091 L118.214222,13.7127273 C117.624889,14.2845455 116.476444,14.6554545 115.252444,14.6554545 C112.532444,14.6554545 111.021333,12.5072727 111.021333,9.66363636 C111.006222,6.74272727 112.562667,4.47090909 115.675556,4.47090909 Z"></path>
													<path d="M244.845333,4.47090909 C243.696889,4.50181818 242.457778,4.99636364 241.702222,5.53727273 L241.702222,1.34909091 L239.843556,1.34909091 L239.843556,14.4854545 L241.702222,14.4854545 L241.702222,6.95909091 C242.472889,6.38727273 243.455111,6.07818182 244.074667,6.06272727 C245.540444,6.00090909 245.948444,6.72727273 245.948444,8.33454545 L245.948444,14.5009091 L247.807111,14.5009091 L247.807111,8.47363636 C247.807111,5.58363636 246.945778,4.42454545 244.845333,4.47090909 Z"></path>
													<path d="M235.944889,4.47090909 C237.153778,4.47090909 238.015111,4.78 238.317333,4.98090909 L238.015111,6.49545455 C237.501333,6.12454545 236.836444,5.95454545 235.854222,5.95454545 C234.524444,5.95454545 233.179556,6.91272727 233.088889,9.33909091 C232.998222,11.8581818 234.237333,13.2181818 235.808889,13.2181818 C236.776,13.2181818 237.682667,12.9090909 238.105778,12.6309091 L238.483556,13.7127273 C237.894222,14.2845455 236.745778,14.6554545 235.521778,14.6554545 C232.801778,14.6554545 231.290667,12.5072727 231.290667,9.66363636 C231.290667,6.74272727 232.847111,4.47090909 235.944889,4.47090909 Z"></path>
													<path d="M158.681778,4.47090909 C157.533333,4.50181818 156.279111,5.05818182 155.523556,5.53727273 L155.523556,4.62545455 L153.664889,4.62545455 L153.664889,14.4854545 L155.523556,14.4854545 L155.523556,6.95909091 C156.294222,6.38727273 157.261333,6.06272727 157.896,6.04727273 C159.407111,5.95454545 159.694222,6.68090909 159.694222,8.33454545 L159.694222,14.5009091 L161.552889,14.5009091 L161.552889,8.35 C161.552889,5.44454545 160.767111,4.42454545 158.681778,4.47090909 Z"></path>
													<path d="M186.184,9.41636364 L183.841778,9.30818182 L183.841778,7.91727273 L187.997333,7.91727273 L187.997333,13.6972727 C187.256889,13.7436364 186.274667,14.6554545 183.660444,14.6554545 C179.852444,14.6554545 177.706667,11.7963636 177.706667,7.99454545 C177.706667,3.46636364 180.351111,1.19454545 183.660444,1.19454545 C185.594667,1.19454545 186.138667,1.48818182 187.256889,1.72 L187.166222,3.45090909 C186.350222,3.01818182 185.428444,2.70909091 183.524444,2.70909091 C181.288,2.70909091 179.640889,4.57909091 179.640889,7.77818182 C179.640889,10.8381818 180.910222,13.2027273 183.615111,13.2027273 C184.536889,13.2027273 185.670222,13.0481818 186.153778,12.7081818 L186.153778,9.41636364 L186.184,9.41636364 Z"></path>
													<polygon points="0.952 1.34909091 2.856 1.34909091 2.856 14.4854545 0.952 14.4854545"></polygon>
													<path d="M46.2702222,4.64090909 L46.2702222,12.3990909 C45.8471111,12.6772727 44.8497778,13.0945455 44.1244444,13.0945455 C42.8551111,13.0945455 42.3564444,12.8472727 42.3564444,10.4209091 L42.3564444,4.64090909 L40.4977778,4.64090909 L40.4977778,10.4209091 C40.4977778,12.9554545 40.9057778,14.6554545 43.3688889,14.6554545 C44.336,14.6554545 45.4844444,14.2381818 46.2702222,13.7745455 L46.2702222,14.4854545 L48.1288889,14.4854545 L48.1288889,4.62545455 L46.2702222,4.62545455 L46.2702222,4.64090909 Z"></path>
													<path d="M149.494222,4.64090909 L149.494222,12.3990909 C149.071111,12.6772727 148.073778,13.0945455 147.348444,13.0945455 C146.079111,13.0945455 145.580444,12.8472727 145.580444,10.4209091 L145.580444,4.64090909 L143.721778,4.64090909 L143.721778,10.4209091 C143.721778,12.9554545 144.129778,14.6554545 146.592889,14.6554545 C147.56,14.6554545 148.708444,14.2381818 149.494222,13.7745455 L149.494222,14.4854545 L151.352889,14.4854545 L151.352889,4.62545455 L149.494222,4.62545455 L149.494222,4.64090909 Z"></path>
													<path d="M169.637333,1.34909091 L169.637333,4.71818182 C169.229333,4.57909091 168.700444,4.47090909 168.096,4.47090909 C165.179556,4.47090909 163.275556,6.72727273 163.275556,9.92636364 C163.275556,13.1409091 165.058667,14.6554545 167.068444,14.6554545 C168.428444,14.6554545 169.184,14.0990909 169.652444,13.6509091 L169.652444,14.5009091 L171.511111,14.5009091 L171.511111,1.36454545 L169.637333,1.36454545 L169.637333,1.34909091 Z M169.637333,12.3527273 C169.229333,12.6772727 168.488889,13.1563636 167.567111,13.1563636 C165.995556,13.1563636 165.119111,12.0436364 165.149333,9.66363636 C165.179556,7.17545455 166.358222,5.84636364 167.899556,5.84636364 C168.715556,5.84636364 169.289778,5.97 169.637333,6.27909091 L169.637333,12.3527273 Z"></path>
													<path d="M74.5128889,4.64090909 L74.5128889,12.3990909 C74.0897778,12.6772727 73.0924444,13.0945455 72.3671111,13.0945455 C71.0977778,13.0945455 70.5991111,12.8472727 70.5991111,10.4209091 L70.5991111,4.64090909 L68.7404444,4.64090909 L68.7404444,10.4209091 C68.7404444,12.9554545 69.1484444,14.6554545 71.6115556,14.6554545 C72.5786667,14.6554545 73.7271111,14.2381818 74.5128889,13.7745455 L74.5128889,14.4854545 L76.3715556,14.4854545 L76.3715556,4.62545455 L74.5128889,4.62545455 L74.5128889,4.64090909 Z M70.6293333,2.49272727 C71.2488889,2.49272727 71.7475556,1.98272727 71.7475556,1.34909091 C71.7475556,0.715454545 71.2488889,0.205454545 70.6293333,0.205454545 C70.0097778,0.205454545 69.5111111,0.715454545 69.5111111,1.34909091 C69.496,1.98272727 70.0097778,2.49272727 70.6293333,2.49272727 Z M74.4826667,2.49272727 C75.1022222,2.49272727 75.6008889,1.98272727 75.6008889,1.34909091 C75.6008889,0.715454545 75.1022222,0.205454545 74.4826667,0.205454545 C73.8631111,0.205454545 73.3644444,0.715454545 73.3644444,1.34909091 C73.3493333,1.98272727 73.8631111,2.49272727 74.4826667,2.49272727 Z"></path>
												</g>
											</g>
										</g>
									</g>
								</g>
							</svg>
