<?xml version="1.0" encoding="UTF-8"?>
<svg id="Ebene_1" data-name="Ebene 1" xmlns="http://www.w3.org/2000/svg" version="1.1" viewBox="0 0 204.0944882 127.5590551">
  <defs>
    <style>
      .cls-1 {
        fill: #000;
      }

      .cls-1, .cls-2, .cls-3, .cls-4 {
        stroke-width: 0px;
      }

      .cls-2 {
        fill: #e50039;
      }

      .cls-3 {
        fill: #fff;
        opacity: 0;
      }

      .cls-4 {
        fill: #0b3f73;
      }
    </style>
  </defs>
  <rect class="cls-3" x="-.0001033" width="204.0946948" height="127.5595964"/>
  <path class="cls-1" d="M30.8211959,33.0360992h-4.0619999v-2.9199027h2.6800999v-.9628972h-2.6800999v-2.6796999h3.6533121v-.9619h-4.900912v8.5038998h5.3095999v-.9795ZM49.7693954,35.0282991c0,1.2813,1.0347,1.8516,2.6572999,1.8574,1.6953.0059,3.0995999-.7773,3.0995999-2.0585026,0-.8847973-.4082-1.7792973-2.3495999-1.7792973h-1.1583c-.5317,0-.7275-.1348-.7275-.6153,0-.2519.1509-.5088.3584-.6543.2178.0508.4473.0723.6934.0723,1.4492,0,2.5682999-.7715,2.5682999-2.1874999,0-.4072-.0937-.7559028-.2524-1.0469028h1.1362v-.9784971h-.6211c-.4061872,0-.8476.1348-1.1367.291-.4644-.2754-1.0718-.4082-1.6719-.3965029-1.4209.0274029-2.5175873.7159029-2.5175873,2.2041028,0,.7998.4306873,1.4326,1.1020873,1.7901-.4868.33-.772.8222-.7832,1.2422-.0054.3359.0786.7158.4922.956-.4082.2235973-.8892.6602-.8892,1.3037ZM52.4266953,28.3661964c.8505,0,1.2587.4688029,1.2587,1.3418028,0,1.0137-.498,1.3203-1.3144,1.3203-.9292,0-1.2984-.6318-1.2984-1.3476,0-1.0684.6382-1.3145028,1.3541-1.3145028ZM51.3748954,33.9765991c.2295.0341.498.039.8281.039h.5703c1.2871,0,1.5782127.3915973,1.5782127,1.0801,0,.6377-.8843127.9453-1.8799127.9453-1.0855,0-1.5049-.3799-1.5049-1.1582,0-.4756027.2012-.7217.4082-.9062ZM58.9881952,34.1220991c.7666,0,1.7343129-.2305,2.1543129-.5742l-.2354129-.7081c-.313.1856-1.1635871.3487-1.5888.3487-1.0406,0-1.8741-.4727-1.9467871-1.9794999,0-.0391-.0059128-.0733-.0059128-.1123h3.9330999c.0615-.2871.0615-.6641.0615-1.1465028-.0502-1.6034971-1.0795-2.4413971-2.3495999-2.418-1.8686.0332029-2.8475999,1.416-2.8475999,3.2832028,0,2.0800999,1.0127,3.3066999,2.8251999,3.3066999ZM58.9432952,28.4091964c1.1191,0,1.3208.9502028,1.2646,1.8672028h-2.8144999c.1456-1.3838.7833-1.8672028,1.5499-1.8672028ZM63.9803951,25.5116994h-1.231v8.5038998h1.231v-8.5038998ZM83.8641946,51.0233964h1.2309v-8.5039h-1.2309v8.5039ZM65.671795,34.0155991h1.2309v-6.3778998h-1.2309v6.3778998ZM70.6717949,30.3202992c-.7779-.3154-1.2534-.5957-1.2368-1.1924.0112-.416.4252-.6855,1.2084-.6855.5933,0,1.1807.1855,1.3765.3535l.2017-.9326c-.1905-.1065-.8452-.332-1.6172-.332-1.2647,0-2.2880999.5517-2.3046999,1.665-.0117,1.0742.7607,1.6523,1.7788131,2.0858972.7274868.3086028,1.3148868.6133028,1.3148868,1.1358028,0,.5009-.4086.7929-1.1582.7871-.8115-.0108-1.6171-.3369027-1.7905-.461l-.1846.9219c.3023.2197,1.1583.4561,2.0307999.4561,1.3818,0,2.2494999-.6299027,2.2494999-1.794,0-1.0967-1.0127-1.6592-1.8686-2.0077999ZM65.920295,47.3290964c-.7777869-.3154-1.2529-.5967-1.2363-1.1934.0112-.416.4253-.6855,1.208513-.6855.5926869,0,1.1805869.1855,1.3763869.3545l.2012-.9336c-.1899-.1064-.8447-.3311-1.6167-.3311-1.2646,0-2.2885999.5508-2.3051999,1.6641-.0112,1.0742.7608,1.6523,1.779313,2.0859.7270869.3086,1.315.6133,1.315,1.1358,0,.501-.4087131.793-1.158713.7881-.8111-.0117-1.6167-.3379-1.7901-.4619l-.1845.9228c.3017.2188,1.1582.4551,2.0306999.4551,1.3819,0,2.2490999-.6299,2.2490999-1.794,0-1.0966-1.0123-1.6591-1.8687-2.0068ZM76.1225081,34.1220991c.8056867,0,1.5663867-.2422,1.958-.6074l-.2515134-.7032c-.2856.1739-.8842.377-1.5219.377-1.0352,0-1.8521-.8828-1.796-2.5136999.0557-1.5635.9512-2.1874999,1.8296-2.1874999.649,0,1.0962.1182,1.4322.3535l.1958-.9775c-.2011866-.1358-.7666-.332-1.5664-.332-2.0537867,0-3.0830999,1.4736-3.0830999,3.3622999,0,1.8339,1.0074,3.2284999,2.8033132,3.2284999ZM84.2811945,34.0155991v-3.8984027c0-1.8632971-.5762-2.6181971-1.9639-2.585-.7597865.0215029-1.5815.3448029-2.0809999.6885029v-2.7089999h-1.231v8.5038998h1.231v-4.8719999c.5092134-.3692,1.1582134-.5645,1.5722134-.5821.9736865-.0449,1.2416865.4258,1.2416865,1.4668v3.9872999h1.231ZM119.1990937,27.5321964c-.7602.0215029-1.5815.3448029-2.0809999.6885029v-2.7089999h-1.231v8.5038998h1.231v-4.8719999c.5092-.3692,1.1582-.5645,1.5722-.5821.9737-.0449,1.2417.4258,1.2417,1.4668v3.9872999h1.231v-3.8984027c0-1.8632971-.5762-2.6181971-1.9639-2.585ZM90.4588944,33.5478992l-.2349-.7081c-.3134.1856-1.1634863.3487-1.5893.3487-1.0405,0-1.874-.4727-1.9468-1.9794999,0-.0391-.0053864-.0733-.0053864-.1123h3.9331863c.0615-.2871.0615-.6641.0615-1.1465028-.0503-1.6034971-1.0796-2.4413971-2.3500999-2.418-1.8682.0332029-2.8476999,1.416-2.8476999,3.2832028,0,2.0800999,1.0127,3.3066999,2.8251999,3.3066999.7666,0,1.7349136-.2305,2.1542999-.5742ZM88.2601944,28.4091964c1.1191,0,1.3203136.9502028,1.2646,1.8672028h-2.8143999c.1455-1.3838.7832-1.8672028,1.5498-1.8672028ZM127.5589935,29.9501964c-.0503-1.6034971-1.0796-2.4413971-2.3495999-2.418-1.8692.0332029-2.8481999,1.416-2.8481999,3.2832028,0,2.0800999,1.0127,3.3066999,2.8256999,3.3066999.7661,0,1.7344-.2305,2.1537999-.5742l-.2348-.7081c-.3135.1856-1.1636.3487-1.5889.3487-1.041,0-1.8744854-.4727-1.9473-1.9794999,0-.0391-.0054-.0733-.0054-.1123h3.9332145c.0614854-.2871.0614854-.6641.0614854-1.1465028ZM126.4065935,30.2763992h-2.8143999c.1455-1.3838.7832-1.8672028,1.5498-1.8672028,1.1191,0,1.3203.9502028,1.2646,1.8672028ZM60.2898951,44.5399964c-1.8686.0332-2.8475999,1.4161-2.8475999,3.2832,0,2.0801,1.0127,3.3067,2.8252128,3.3067.7665871,0,1.734287-.2305,2.154287-.5742l-.2349-.708c-.3135.1855-1.1636.3486-1.5889.3486-1.041,0-1.8744871-.4727-1.9472-1.9785,0-.0401-.0059-.0742-.0059-.1133h3.9336129c.061487-.2871.061487-.6631.061487-1.1465-.0503-1.6035-1.0796-2.4414-2.3500999-2.418ZM61.4876951,47.2841964h-2.8144999c.1455-1.3838.7832-1.8672,1.5498-1.8672,1.1192,0,1.3204.9502,1.2647,1.8672ZM89.2381944,44.5399964c-1.8686.0332-2.8475999,1.4161-2.8475999,3.2832,0,2.0801,1.0126,3.3067,2.8250999,3.3067.7667,0,1.7344-.2305,2.1542999-.5742l-.2353-.708c-.313.1855-1.1636.3486-1.5889.3486-1.0405,0-1.874-.4727-1.9468-1.9785,0-.0401-.0058-.0742-.0058-.1133h3.9335999c.0615-.2871.0615-.6631.0615-1.1465-.0507863-1.6035-1.0801-2.4414-2.3500999-2.418ZM90.4355081,47.2841964h-2.814c.145-1.3838.7831864-1.8672,1.5492864-1.8672,1.1192,0,1.3208.9502,1.2647136,1.8672ZM103.1531941,34.0155991h1.2305v-6.3778998h-1.2305v6.3778998ZM113.0389938,33.1884992c-1.0352,0-1.8521-.8828-1.7959-2.5136999.0556-1.5635.9506-2.1874999,1.8291-2.1874999.6494,0,1.0966.1182,1.4326.3535l.1958-.9775c-.2017-.1358-.7666-.332-1.5664-.332-2.0532999,0-3.0829999,1.4736-3.0829999,3.3622999,0,1.8339,1.0073142,3.2284999,2.8031999,3.2284999.8056,0,1.5664-.2422,1.958-.6074l-.252-.7032c-.2851.1739-.8837.377-1.5214.377ZM34.1018958,44.5399964c-1.6396,0-2.8817999,1.1016-2.9095999,3.1592-.0225,1.8281.7553,3.4307,2.7977999,3.4307,1.6446,0,2.8814122-1.1026,2.9145999-3.1602.0224-1.8281-.7554-3.4297-2.8027999-3.4297ZM34.0232958,50.2528964c-1.0849-.0234-1.583-1.164-1.583-2.5371,0-1.4785.5591-2.3105,1.6333-2.2881,1.0967.0166,1.5835,1.1133,1.5835,2.4854,0,1.4844-.5537,2.3613-1.6338,2.3398ZM71.1683949,50.1454964c-.6098868,0-.7051-.1016-.7051-1.3262v-3.2451h1.8017v-.9287h-1.8017v-1.4883h-.7383c-.1567.5098-.2686.9121-.3696,1.17-.1343.3632-.3858.3857-.9454.5478v.6992h.8282v3.9385c0,1.3203.6489,1.6172,1.4717,1.6172.643,0,1.415-.2627,1.7622-.5205l-.2129-.7041c-.2124.1113-.7608.2402-1.0908.2402ZM73.9715948,44.2538964v.3916h-.9678v.9297h.9678v5.4482h1.231v-5.4482h1.5776v-.9297h-1.5776v-.6719c0-.8105.3803-1.2129.9121-1.2129.4975,0,.7329.0332.9619.1114v-.9727c-.1172-.0449-.4478-.124-.7944-.124-1.024,0-2.3105999.5713-2.3105999,2.4785ZM32.8475081,34.0155991h1.1040878l2.4164999-6.3778998h-1.3091l-1.6553,4.9511999-1.7241-4.9511999h-1.3257l2.4936122,6.3778998ZM28.030196,49.5966964l-1.7242-4.9512h-1.3256l2.494112,6.3779h1.1034879l2.4165121-6.3779h-1.3091121l-1.6552,4.9512ZM40.4529957,33.5575992v.458h1.231v-4.4540999c0-1.6718-.9174876-2.0301999-2.2714876-2.0301999-.9907124,0-2.1094123.4423-2.3442123.5868971l.3017.8066028c.291-.207,1.1641-.4648,1.7236-.4648.9229124,0,1.3594.1396,1.3594,1.0517v.6709c-.7217,0-1.6894.1182-2.4281999.4151-.7607.3134-1.2422.9004-1.2422,1.7274972,0,1.1191027.8228,1.7969027,1.9526,1.7969027.7051,0,1.3565-.2735,1.7178-.5645ZM37.9969957,32.2196992c0-.4922.2964-.75.7104-.9453.4585-.2187,1.2813-.3076,1.7456-.3076v1.7842c-.1289.1513-.7832.4531-1.354.4531-.7441,0-1.102-.3359027-1.102-.9844ZM79.9925947,44.5399964c-.9897,0-2.1088999.4414-2.3441999.587l.3022.8056c.291-.207,1.1641-.4648,1.7232-.4648.9233,0,1.3598.1406,1.3598,1.0517v.6709c-.7217,0-1.6894.1182-2.4281999.4151-.7607.3134-1.2422.9004-1.2422,1.7285,0,1.1191.8228,1.7959,1.9526,1.7959.7056,0,1.357-.2735,1.7178-.5645v.458h1.231v-4.4541c0-1.6718-.918-2.0293-2.2719999-2.0293ZM81.0335946,49.7587964c-.1289.1514-.7832.4531-1.354.4531-.7440866,0-1.102-.3359-1.102-.9844,0-.4921.2964-.75.7104-.9453.4585134-.2187,1.2813-.3076,1.7456-.3076v1.7842ZM47.3011955,30.0282992v3.9872999h1.2309v-3.9814027c0-1.8691971-.5205-2.5351971-1.897-2.502-.7641.0215029-1.5927.3848029-2.0921999.6953029v-.5898h-1.231v6.3778998h1.231v-4.8719999c.5092-.3692,1.1469-.5762,1.5664-.5928.9961-.0557,1.1919.414,1.1919,1.4775ZM41.4555081,44.5399964c-.7642124.0215-1.5928124.3848-2.0923124.6954v-.5899h-1.231v6.3779h1.231v-4.872c.5093124-.3692,1.1469-.5762,1.5664-.5928.9956-.0557,1.1919124.4141,1.1919124,1.4775v3.9873h1.2303875v-3.9814c0-1.8691-.52-2.5352-1.8963875-2.502ZM96.1648942,44.5399964c-.7641.0215-1.5927.3848-2.0921999.6954v-.5899h-1.231v6.3779h1.231v-4.872c.5093-.3692,1.1469-.5762,1.5664-.5928.9956-.0557,1.1914138.4141,1.1914138,1.4775v3.9873h1.2308861v-3.9814c0-1.8691-.5205-2.5352-1.8965-2.502ZM66.2875081,26.2558993c.4105869,0,.7435869-.333.7435869-.7442,0-.4111-.333-.7441-.7435869-.7441-.4111131,0-.744613.333-.744613.7441,0,.4112.3335.7442.744613.7442ZM103.7683941,24.7675994c-.4111,0-.7441.333-.7441.7441,0,.4112.333.7442.7441.7442.4107,0,.7442-.333.7442-.7442,0-.4111-.3335-.7441-.7442-.7441ZM107.393894,28.2108993v-.5732h-1.2309v6.3778998h1.2309v-4.8729999c.2798-.2569.7666141-.5322,1.3931-.5322.5259,0,.7275141.0897971.8394.1523v-1.1533c-.1118858-.0498-.3188858-.0781-.6211-.0781-.6285,0-1.2945.373-1.6114.6796ZM54.4910953,49.2079964l-1.9702-6.6885h-.9302l-1.8979,6.5323-1.5996-6.5323h-1.2803l2.3168999,8.5039h1.0971l1.8252-6.1894,1.7989,6.1894h1.247l2.1733999-8.5039h-1.252l-1.5283,6.6885ZM101.9783941,25.5116994h-1.4712l-3.3690999,4.2685999v-4.2685999h-1.2475862v8.5038998h1.2475862v-2.6854999l1.0571-1.2305c.6157.9697,1.8579,2.7343999,2.5204999,3.9159999h1.4097c-.7857-1.3886-2.6127999-3.9442999-3.1576999-4.8387999l3.0106999-3.6650999Z"/>
  <rect class="cls-2" x="153.0701928" y="25.5116994" width="25.5116994" height="25.5116971"/>
  <rect class="cls-4" x="178.5818922" y="51.0233964" width="25.5126994" height="51.0245"/>
  <path class="cls-1" d="M26.473096,67.2897964v-7.7598h-.9609v8.504h4.4804999v-.7442h-3.5195999ZM121.3656936,67.3913964c-.6328,0-.8496-.1133-.8496-1.377v-3.6533h1.9804999v-.7051h-1.9804999v-1.4878h-.5605c-.1172.3745-.2070856,1.0513-.2793,1.2417-.1016.2686-.5645.2852-.9785.4087v.5425h.8886v4.1787c0,1.3652.6719,1.6006,1.4551144,1.6006.582,0,1.3593855-.2627,1.6835855-.5264l-.1621-.542c-.2129.1455-.8164.3194-1.1973.3194ZM59.3735081,64.4347964c-.8261129-.3203-1.4043129-.6411-1.3925129-1.3159.0058-.5058.4824-.8716,1.3925129-.8716.627,0,1.2324871.1797,1.4492871.3492l.1582-.7144c-.2247-.1294-.8964871-.3374-1.6407-.332-1.1972.0058-2.2030999.5171-2.2264999,1.6196-.0118,1.0459.8281,1.5967,1.8066,1.9961.7617.3096,1.5234.6074,1.5234,1.2822,0,.6641-.582.9951-1.4002871.9951-.7715129-.0107-1.5938128-.3037-1.834-.4716l-.1465128.708c.3691.2412,1.209.4609,2.0253999.4609,1.3594,0,2.2264999-.6357,2.2264999-1.7607,0-1.1075-1.1015-1.6133-1.9413871-1.9449ZM53.5336953,61.5500964c-1.8359.0229-2.8593999,1.3945-2.8593999,3.3232,0,2.0523.9902127,3.2671,2.7812999,3.2671.789,0,1.7343-.2412,2.1542999-.5908l-.1797-.5449c-.336.2187-1.1582.4277-1.7344.4277-1.1797,0-2.0487999-.6192-2.1034999-2.2666-.0059-.0733-.0059-.1514-.0059-.2246h4.1855999c.0488-.2647.0488-.5738.0488-.9844-.0391-1.4619-.9395-2.4233-2.2870999-2.4067ZM54.9437953,64.3107964h-3.3182872c.168-1.4785.9061873-2.0913,1.8514873-2.0913,1.1583,0,1.5333.9165,1.4668,2.0913ZM91.3812944,61.5500964c-1.8359.0229-2.8592999,1.3945-2.8592999,3.3232,0,2.0523.9902,3.2671,2.7811999,3.2671.7891,0,1.7344-.2412,2.1523999-.5908l-.1778-.5449c-.3359.2187-1.1582.4277-1.7342863.4277-1.1817137,0-2.0489136-.6192-2.1036136-2.2666-.0058-.0733-.0058-.1514-.0058-.2246h4.1835999c.0508138-.2647.0508138-.5738.0508138-.9844-.0391138-1.4619-.9395137-2.4233-2.2872137-2.4067ZM92.7915081,64.3107964h-3.3184136c.168-1.4785.9063-2.0913,1.8516-2.0913,1.1582,0,1.5332.9165,1.4668137,2.0913ZM78.8461947,67.4323964c-1.0859,0-2.0370999-.8828-1.9921999-2.6768.0449-1.6758,1.0059-2.4804,2.0526999-2.4804.5996,0,1.125.1181,1.4375.3486l.1621-.7422c-.2226-.1514-.7987866-.3315-1.5487866-.3315-1.9472133,0-3.0156133,1.4511-3.0097133,3.3906,0,1.8276,1,3.1997,2.7577999,3.1997.8047,0,1.5449134-.2412,1.9472-.6123l-.1952866-.54c-.2754134.1796-.873.4443-1.6113134.4443ZM113.6547938,68.0339964v-3.9717c0-.4029-.0215-.7495-.0722857-1.0406.4765857-.3354,1.1972857-.6767,1.8027857-.6879,1.1171-.0337,1.291.6152,1.291,1.8017v3.8985h.9297v-3.9434c0-1.8965-.5196-2.5566-1.8692-2.54-.9062.0112-1.834.4868-2.3163999.8559-.2676-.6489-.7715-.8672-1.5781-.8559-.8281.0156-1.75.478-2.2480999.8447v-.7393h-.9355v6.378h.9355v-4.9229c.5039-.4141,1.3028-.7495,1.8731-.7715,1.0469-.0508,1.2539.5142,1.2539,1.7847v3.9097h.9336ZM73.1059948,62.3996964v-.7437h-.9356v6.378h.9356v-4.9229c.3183-.3193.9511-.7388,1.6894-.7388.4629,0,.666.0728.7715.1289v-.8784c-.1055-.0449-.3125-.0727-.6035-.0727-.7558867,0-1.5313.5053-1.8574.8496ZM85.1840945,61.5505964c-.8672.0156-1.7655865.5053-2.2480999.8481v-2.8682h-.9354865v8.5035h.9354865v-4.9224c.4805135-.3862,1.2578-.772,1.8614-.7837,1.0918-.0444,1.3613.4814,1.3613,1.7456v3.9605h.9336v-3.9546c0-1.8746-.5195-2.5513-1.9082-2.5288ZM67.881295,61.6618964h-1.1074l-2.9823869,3.0762v-5.2076h-.927713v8.5035h.927713v-2.2657l.980487-.9848,2.3163999,3.2505h1.0683l-2.7655999-3.8711,2.4901999-2.501ZM40.5043956,61.5505964c-.8691.0156-1.7656.5053-2.2499999.8481v-.7427h-.9336v6.378h.9336v-4.9224c.4805-.3862,1.2598-.772,1.8633-.7832,1.0918124-.0449,1.3593.4809,1.3593,1.7451v3.9605h.9336v-3.9546c0-1.8741-.5195-2.5513-1.9062-2.5288ZM98.4340942,61.5505964c-.8672.0156-1.7655861.5053-2.2480999.8481v-.7427h-.9354862v6.378h.9354862v-4.9224c.4805138-.3862,1.2578-.772,1.8633-.7832,1.0899-.0449,1.3594.4809,1.3594,1.7451v3.9605h.9336v-3.9546c0-1.8741-.5195-2.5513-1.9082-2.5288ZM48.1879955,61.7575964c-.2891-.1099-.7129-.2075-1.2188-.2075-1.9238,0-3.2010999,1.4565-3.2010999,3.5034,0,2.1699,1.2148,3.0869,2.5174999,3.0869.9844,0,1.5723-.4365,1.9024-.7451v.6387h.9355126v-8.5035h-.9355126v2.2271ZM48.1879955,66.7624964c-.3124874.2705-.916.6416-1.6504.6416-1.1406,0-1.834-.8096-1.8125-2.48.0176-1.7095.9355-2.688,2.1542999-2.688.6836,0,1.1016.1348,1.3086.3149v4.2115ZM33.4613958,61.5500964c-1.0351,0-2.1249999.4922-2.3436999.6377l.2285.6152c.3359-.2402,1.2266-.5425,1.875-.5425.9512,0,1.4883122.1787,1.4883122,1.2085v.7666c-.666,0-1.7403122.0952-2.4903122.3745-.8886.3301-1.375.918-1.375,1.7569,0,1.1084.8106,1.7734,1.9414,1.7734.8653,0,1.5606-.3369,1.9239122-.6397v.5333h.9276877v-4.5259c0-1.6001-.8769-1.958-2.1757999-1.958ZM34.7095081,66.8874964c-.1465123.1562-.8496122.5547-1.6504122.5547-.918,0-1.293-.4766-1.293-1.1485,0-.5644.3301-.9219.9688-1.1631.5429-.2236,1.5156122-.2964,1.9746122-.2964v2.0533ZM104.529794,61.5500964c-1.0352,0-2.1269999.4922-2.3437999.6377l.228514.6152c.336-.2402,1.224686-.5425,1.875-.5425.951186,0,1.4882859.1787,1.4882859,1.2085v.7666c-.666,0-1.7402.0952-2.4901999.3745-.8906.3301-1.377.918-1.377,1.7569,0,1.1084.8125,1.7734,1.9414,1.7734.8653,0,1.562514-.3369,1.9258-.6397v.5333h.9278v-4.5259c0-1.6001-.877-1.958-2.1757999-1.958ZM105.777794,66.8874964c-.1465.1562-.8515.5547-1.6504.5547-.917886,0-1.292886-.4766-1.292886-1.1485,0-.5644.33-.9219.966786-1.1631.5429-.2236,1.5175-.2964,1.9765-.2964v2.0533ZM69.2543949,68.0339964h.9277v-6.378h-.9277v6.378ZM69.8246949,58.7863964c-.3516,0-.6387.2856-.6387.6377,0,.352.2871.6377.6387.6377s.6367-.2857.6367-.6377c0-.3521-.2851-.6377-.6367-.6377Z"/>
</svg>
