<?xml version="1.0" encoding="utf-8"?>
<!-- Generator: $$$/GeneralStr/196=Adobe Illustrator 27.6.0, SVG Export Plug-In . SVG Version: 6.00 Build 0)  -->
<svg version="1.1" xmlns="http://www.w3.org/2000/svg" xmlns:xlink="http://www.w3.org/1999/xlink" x="0px" y="0px"
	 viewBox="0 0 331.7 85" style="enable-background:new 0 0 331.7 85;" xml:space="preserve">
<style type="text/css">
	.st0{opacity:0;fill:#FFFFFF;}
	.st1{fill:#E50039;}
	.st2{fill:#0B3F73;}
</style>
<g id="Schutzzone">
	<rect class="st0" width="331.7" height="85"/>
</g>
<g id="Schriftzug">
	<path d="M103,47h2.8v-0.7H103v-3h3.9v-0.7H102V51h5.2v-0.7H103V47z M177.7,42.5h-1.1l-3.8,4.6v-4.6h-0.9V51h0.9v-2.7l1.3-1.5
		c0.6,1,2,3,2.7,4.2h1.1c-0.8-1.4-2.6-4-3.2-4.9L177.7,42.5z M253.8,50.4c-0.6,0-0.8-0.1-0.8-1.4v-3.7h2v-0.7h-2v-1.5h-0.6
		c-0.1,0.4-0.2,1.1-0.3,1.2c-0.1,0.3-0.6,0.3-1,0.4v0.5h0.9v4.2c0,1.4,0.7,1.6,1.5,1.6c0.6,0,1.4-0.3,1.7-0.5l-0.2-0.5
		C254.8,50.2,254.2,50.4,253.8,50.4z M256.8,44.3v0.4h-1.1v0.7h1.1V51h0.9v-5.7h1.7v-0.7h-1.7v-0.6c0-1,0.5-1.6,1.1-1.6
		c0.4,0,0.7,0,0.9,0.1v-0.7c-0.1,0-0.4-0.1-0.8-0.1C257.9,41.8,256.8,42.4,256.8,44.3z M146.3,47.4c-0.8-0.3-1.4-0.6-1.4-1.3
		c0-0.5,0.5-0.9,1.4-0.9c0.6,0,1.2,0.2,1.4,0.3l0.2-0.7c-0.2-0.1-0.9-0.3-1.6-0.3c-1.2,0-2.2,0.5-2.2,1.6c0,1,0.8,1.6,1.8,2
		c0.8,0.3,1.5,0.6,1.5,1.3c0,0.7-0.6,1-1.4,1c-0.8,0-1.6-0.3-1.8-0.5l-0.1,0.7c0.4,0.2,1.2,0.5,2,0.5c1.4,0,2.2-0.6,2.2-1.8
		C148.3,48.3,147.2,47.8,146.3,47.4z M248.5,47.4c-0.8-0.3-1.4-0.6-1.4-1.3c0-0.5,0.5-0.9,1.4-0.9c0.6,0,1.2,0.2,1.4,0.3l0.2-0.7
		c-0.2-0.1-0.9-0.3-1.6-0.3c-1.2,0-2.2,0.5-2.2,1.6c0,1,0.8,1.6,1.8,2c0.8,0.3,1.5,0.6,1.5,1.3c0,0.7-0.6,1-1.4,1
		c-0.8,0-1.6-0.3-1.8-0.5l-0.1,0.7c0.4,0.2,1.2,0.5,2,0.5c1.4,0,2.2-0.6,2.2-1.8C250.4,48.3,249.3,47.8,248.5,47.4z M216,44.5
		c-1.6,0-2.9,1.1-2.9,3.2c0,1.8,0.8,3.4,2.8,3.4c1.6,0,2.9-1.2,2.9-3.2C218.7,46.1,217.9,44.5,216,44.5z M215.9,50.5
		c-1.3,0-1.9-1.3-1.9-2.7c0-1.6,0.7-2.5,1.9-2.5c1.3,0,1.8,1.2,1.8,2.7C217.8,49.5,217.1,50.5,215.9,50.5z M135.3,44.5
		c-1.8,0-2.9,1.4-2.9,3.3c0,2.1,1,3.3,2.8,3.3c0.8,0,1.7-0.2,2.2-0.6l-0.2-0.5c-0.3,0.2-1.2,0.4-1.7,0.4c-1.2,0-2-0.6-2.1-2.3
		c0-0.1,0-0.2,0-0.2h4.2c0-0.3,0-0.6,0-1C137.6,45.5,136.7,44.5,135.3,44.5z M136.7,47.3h-3.3c0.2-1.5,0.9-2.1,1.9-2.1
		C136.4,45.2,136.8,46.1,136.7,47.3z M164.3,44.5c-1.8,0-2.9,1.4-2.9,3.3c0,2.1,1,3.3,2.8,3.3c0.8,0,1.7-0.2,2.2-0.6l-0.2-0.5
		c-0.3,0.2-1.2,0.4-1.7,0.4c-1.2,0-2-0.6-2.1-2.3c0-0.1,0-0.2,0-0.2h4.2c0.1-0.3,0.1-0.6,0.1-1C166.5,45.5,165.6,44.5,164.3,44.5z
		 M165.7,47.3h-3.3c0.2-1.5,0.9-2.1,1.9-2.1C165.4,45.2,165.8,46.1,165.7,47.3z M152,50.4c-1.1,0-2-0.9-2-2.7c0-1.7,1-2.5,2.1-2.5
		c0.6,0,1.1,0.1,1.4,0.3l0.2-0.7c-0.2-0.2-0.8-0.3-1.5-0.3c-1.9,0-3,1.5-3,3.4c0,1.8,1,3.2,2.8,3.2c0.8,0,1.5-0.2,1.9-0.6l-0.2-0.5
		C153.4,50.2,152.8,50.4,152,50.4z M139,51h0.9v-8.5H139V51z M266.7,51h0.9v-8.5h-0.9V51z M130.2,44.9c-0.4-0.2-0.9-0.4-1.5-0.3
		c-1.4,0-2.5,0.7-2.5,2.2c0,0.8,0.4,1.4,1.1,1.8c-0.5,0.3-0.8,0.8-0.8,1.3c0,0.4,0.1,0.7,0.5,1c-0.4,0.2-0.9,0.7-0.9,1.3
		c0,1.3,1.1,1.8,2.7,1.8c1.7,0,3.1-0.8,3.1-2c0-0.8-0.4-1.6-2.2-1.6h-1.4c-0.7,0-0.9-0.2-0.9-0.7c0-0.3,0.2-0.6,0.4-0.8
		c0.3,0.1,0.6,0.1,0.9,0.1c1.4,0,2.5-0.8,2.5-2.2c0-0.5-0.1-0.9-0.4-1.3h1.1v-0.8h-0.6C130.9,44.6,130.4,44.8,130.2,44.9z M127.5,51
		c0.2,0,0.5,0.1,0.9,0.1h0.9c1.3,0,1.7,0.3,1.7,1c0,0.8-1.1,1.2-2.1,1.2c-1.2,0-1.8-0.4-1.8-1.3C127,51.5,127.2,51.2,127.5,51z
		 M128.6,48.3c-1,0-1.5-0.7-1.5-1.5c0-1.2,0.8-1.5,1.6-1.5c0.9,0,1.5,0.5,1.5,1.5C130.2,47.8,129.6,48.3,128.6,48.3z M182.7,45.4
		v-0.7h-0.9V51h0.9v-4.9c0.3-0.3,1-0.7,1.7-0.7c0.5,0,0.7,0.1,0.8,0.1v-0.9c-0.1,0-0.3-0.1-0.6-0.1C183.8,44.5,183,45,182.7,45.4z
		 M122.9,44.5c-0.9,0-1.8,0.5-2.2,0.8v-0.7h-0.9V51h0.9v-4.9c0.5-0.4,1.3-0.8,1.9-0.8c1.1,0,1.4,0.5,1.4,1.7v4h0.9v-4
		C124.8,45.2,124.3,44.5,122.9,44.5z M223.3,44.5c-0.9,0-1.8,0.5-2.2,0.8v-0.7h-0.9V51h0.9v-4.9c0.5-0.4,1.3-0.8,1.9-0.8
		c1.1,0,1.4,0.5,1.4,1.7v4h0.9v-4C225.2,45.2,224.6,44.5,223.3,44.5z M278.7,44.5c-0.9,0-1.8,0.5-2.2,0.8v-0.7h-0.9V51h0.9v-4.9
		c0.5-0.4,1.3-0.8,1.9-0.8c1.1,0,1.4,0.5,1.4,1.7v4h0.9v-4C280.6,45.2,280.1,44.5,278.7,44.5z M158.1,44.5c-0.9,0-1.8,0.5-2.2,0.8
		v-2.9h-0.9V51h0.9v-4.9c0.5-0.4,1.3-0.8,1.9-0.8c1.1,0,1.4,0.5,1.4,1.7v4h0.9v-4C160,45.2,159.5,44.5,158.1,44.5z M200.7,44.5
		c-1.8,0-2.9,1.4-2.9,3.3c0,2.1,1,3.3,2.8,3.3c0.8,0,1.7-0.2,2.2-0.6l-0.2-0.5c-0.3,0.2-1.2,0.4-1.7,0.4c-1.2,0-2-0.6-2.1-2.3
		c0-0.1,0-0.2,0-0.2h4.2c0.1-0.3,0.1-0.6,0.1-1C202.9,45.5,202,44.5,200.7,44.5z M202.1,47.3h-3.3c0.2-1.5,0.9-2.1,1.9-2.1
		C201.8,45.2,202.1,46.1,202.1,47.3z M243,44.5c-1.8,0-2.9,1.4-2.9,3.3c0,2.1,1,3.3,2.8,3.3c0.8,0,1.7-0.2,2.2-0.6l-0.2-0.5
		c-0.3,0.2-1.2,0.4-1.7,0.4c-1.2,0-2-0.6-2.1-2.3c0-0.1,0-0.2,0-0.2h4.2c0.1-0.3,0.1-0.6,0.1-1C245.2,45.5,244.3,44.5,243,44.5z
		 M244.4,47.3h-3.3c0.2-1.5,0.9-2.1,1.9-2.1C244.1,45.2,244.4,46.1,244.4,47.3z M271.9,44.5c-1.8,0-2.9,1.4-2.9,3.3
		c0,2.1,1,3.3,2.8,3.3c0.8,0,1.7-0.2,2.2-0.6l-0.2-0.5c-0.3,0.2-1.2,0.4-1.7,0.4c-1.2,0-2-0.6-2.1-2.3c0-0.1,0-0.2,0-0.2h4.2
		c0-0.3,0-0.6,0-1C274.1,45.5,273.2,44.5,271.9,44.5z M273.3,47.3H270c0.2-1.5,0.9-2.1,1.9-2.1C273,45.2,273.4,46.1,273.3,47.3z
		 M188.4,50.4c-1.1,0-2-0.9-2-2.7c0-1.7,1-2.5,2.1-2.5c0.6,0,1.1,0.1,1.4,0.3l0.2-0.7c-0.2-0.2-0.8-0.3-1.5-0.3c-1.9,0-3,1.5-3,3.4
		c0,1.8,1,3.2,2.8,3.2c0.8,0,1.5-0.2,1.9-0.6L190,50C189.7,50.2,189.1,50.4,188.4,50.4z M194.5,44.5c-0.9,0-1.8,0.5-2.2,0.8v-2.9
		h-0.9V51h0.9v-4.9c0.5-0.4,1.3-0.8,1.9-0.8c1.1,0,1.4,0.5,1.4,1.7v4h0.9v-4C196.4,45.2,195.9,44.5,194.5,44.5z M237.2,49.7
		l-2.1-7.2h-0.7l-2.1,7.1l-1.8-7.1h-1l2.3,8.5h0.9l2-6.7l2,6.7h1l2.2-8.5h-1L237.2,49.7z M109.8,50l-1.9-5.3h-1l2.5,6.4h0.9l2.4-6.4
		h-1L109.8,50z M209.9,50l-1.9-5.3h-1l2.5,6.4h0.9l2.4-6.4h-1L209.9,50z M115.8,44.5c-1,0-2.1,0.5-2.3,0.6l0.2,0.6
		c0.3-0.2,1.2-0.5,1.9-0.5c1,0,1.5,0.2,1.5,1.2v0.8c-0.7,0-1.7,0.1-2.5,0.4c-0.9,0.3-1.4,0.9-1.4,1.8c0,1.1,0.8,1.8,1.9,1.8
		c0.9,0,1.6-0.3,1.9-0.6V51h0.9v-4.5C118,44.9,117.1,44.5,115.8,44.5z M117.1,49.9c-0.1,0.2-0.9,0.6-1.7,0.6c-0.9,0-1.3-0.5-1.3-1.1
		c0-0.6,0.3-0.9,1-1.2c0.5-0.2,1.5-0.3,2-0.3V49.9z M262.8,44.5c-1,0-2.1,0.5-2.3,0.6l0.2,0.6c0.3-0.2,1.2-0.5,1.9-0.5
		c1,0,1.5,0.2,1.5,1.2v0.8c-0.7,0-1.7,0.1-2.5,0.4c-0.9,0.3-1.4,0.9-1.4,1.8c0,1.1,0.8,1.8,1.9,1.8c0.9,0,1.6-0.3,1.9-0.6V51h0.9
		v-4.5C264.9,44.9,264.1,44.5,262.8,44.5z M264,49.9c-0.1,0.2-0.9,0.6-1.7,0.6c-0.9,0-1.3-0.5-1.3-1.1c0-0.6,0.3-0.9,1-1.2
		c0.5-0.2,1.5-0.3,2-0.3V49.9z M141.8,51h0.9v-6.4h-0.9V51z M142.2,41.8c-0.4,0-0.6,0.3-0.6,0.6c0,0.4,0.3,0.6,0.6,0.6
		c0.4,0,0.6-0.3,0.6-0.6C142.9,42.1,142.6,41.8,142.2,41.8z M179.5,41.8c-0.4,0-0.6,0.3-0.6,0.6c0,0.4,0.3,0.6,0.6,0.6
		c0.4,0,0.6-0.3,0.6-0.6C180.2,42.1,179.9,41.8,179.5,41.8z M179.1,51h0.9v-6.4h-0.9V51z"/>
</g>
<g id="Bildmarke">
	<rect x="297.6" y="17" class="st1" width="17" height="17"/>
	<rect x="314.6" y="34" class="st2" width="17" height="34"/>
</g>
<g id="Isolationsmodus">
	<g>
		<rect x="84.6" width="0.9" height="85"/>
	</g>
</g>
<g id="Amt_x2F_Werk">
	<path d="M123.6,27.5c-1,0-2.1,0.4-2.3,0.6l0.3,0.8c0.3-0.2,1.2-0.5,1.7-0.5c0.9,0,1.4,0.1,1.4,1.1v0.7c-0.7,0-1.7,0.1-2.4,0.4
		c-0.8,0.3-1.2,0.9-1.2,1.7c0,1.1,0.8,1.8,2,1.8c0.7,0,1.4-0.3,1.7-0.6V34h1.2v-4.5C125.9,27.9,124.9,27.5,123.6,27.5z M124.6,32.8
		c-0.1,0.2-0.8,0.5-1.4,0.5c-0.7,0-1.1-0.3-1.1-1c0-0.5,0.3-0.8,0.7-0.9c0.5-0.2,1.3-0.3,1.7-0.3V32.8z M131.3,27.9
		c-0.5-0.3-1.1-0.4-1.7-0.4c-1.4,0-2.5,0.7-2.5,2.2c0,0.8,0.4,1.4,1.1,1.8c-0.5,0.3-0.8,0.8-0.8,1.2c0,0.3,0.1,0.7,0.5,1
		c-0.4,0.2-0.9,0.7-0.9,1.3c0,1.3,1,1.9,2.7,1.9c1.7,0,3.1-0.8,3.1-2.1c0-0.9-0.4-1.8-2.3-1.8h-1.2c-0.5,0-0.7-0.1-0.7-0.6
		c0-0.3,0.2-0.5,0.4-0.7c0.2,0.1,0.4,0.1,0.7,0.1c1.4,0,2.6-0.8,2.6-2.2c0-0.4-0.1-0.8-0.3-1h1.1v-1h-0.6
		C132,27.6,131.6,27.8,131.3,27.9z M128.6,34c0.2,0,0.5,0,0.8,0h0.6c1.3,0,1.6,0.4,1.6,1.1c0,0.6-0.9,0.9-1.9,0.9
		c-1.1,0-1.5-0.4-1.5-1.2C128.2,34.4,128.4,34.2,128.6,34z M129.6,31c-0.9,0-1.3-0.6-1.3-1.3c0-1.1,0.6-1.3,1.4-1.3
		c0.9,0,1.3,0.5,1.3,1.3C130.9,30.7,130.4,31,129.6,31z M144.2,27.9c-0.5-0.3-1.1-0.4-1.7-0.4c-1.4,0-2.5,0.7-2.5,2.2
		c0,0.8,0.4,1.4,1.1,1.8c-0.5,0.3-0.8,0.8-0.8,1.2c0,0.3,0.1,0.7,0.5,1c-0.4,0.2-0.9,0.7-0.9,1.3c0,1.3,1,1.9,2.7,1.9
		c1.7,0,3.1-0.8,3.1-2.1c0-0.9-0.4-1.8-2.3-1.8h-1.2c-0.5,0-0.7-0.1-0.7-0.6c0-0.3,0.2-0.5,0.4-0.7c0.2,0.1,0.4,0.1,0.7,0.1
		c1.4,0,2.6-0.8,2.6-2.2c0-0.4-0.1-0.8-0.3-1h1.1v-1h-0.6C144.9,27.6,144.5,27.8,144.2,27.9z M141.6,34c0.2,0,0.5,0,0.8,0h0.6
		c1.3,0,1.6,0.4,1.6,1.1c0,0.6-0.9,0.9-1.9,0.9c-1.1,0-1.5-0.4-1.5-1.2C141.1,34.4,141.3,34.2,141.6,34z M142.5,31
		c-0.9,0-1.3-0.6-1.3-1.3c0-1.1,0.6-1.3,1.4-1.3c0.8,0,1.3,0.5,1.3,1.3C143.9,30.7,143.4,31,142.5,31z M136.3,27.5
		c-1.6,0-2.9,1.1-2.9,3.2c0,1.8,0.8,3.4,2.8,3.4c1.6,0,2.9-1.1,2.9-3.2C139.1,29.1,138.4,27.5,136.3,27.5z M136.2,33.2
		c-1.1,0-1.6-1.2-1.6-2.5c0-1.5,0.6-2.3,1.6-2.3c1.1,0,1.6,1.1,1.6,2.5C137.9,32.4,137.3,33.3,136.2,33.2z M146.8,34h1.2v-6.4h-1.2
		V34z M147.4,24.8c-0.4,0-0.7,0.3-0.7,0.7c0,0.4,0.3,0.7,0.7,0.7c0.4,0,0.7-0.3,0.7-0.7C148.2,25.1,147.8,24.8,147.4,24.8z
		 M151.8,30.3c-0.8-0.3-1.3-0.6-1.2-1.2c0-0.4,0.4-0.7,1.2-0.7c0.6,0,1.2,0.2,1.4,0.4l0.2-0.9c-0.2-0.1-0.8-0.3-1.6-0.3
		c-1.3,0-2.3,0.6-2.3,1.7c0,1.1,0.8,1.7,1.8,2.1c0.7,0.3,1.3,0.6,1.3,1.1c0,0.5-0.4,0.8-1.2,0.8c-0.8,0-1.6-0.3-1.8-0.5l-0.2,0.9
		c0.3,0.2,1.2,0.5,2,0.5c1.4,0,2.2-0.6,2.2-1.8C153.7,31.2,152.7,30.7,151.8,30.3z M157.5,33.2c-1,0-1.9-0.9-1.8-2.5
		c0.1-1.6,1-2.2,1.8-2.2c0.6,0,1.1,0.1,1.4,0.4l0.2-1c-0.2-0.1-0.8-0.3-1.6-0.3c-2.1,0-3.1,1.5-3.1,3.4c0,1.8,1,3.2,2.8,3.2
		c0.8,0,1.6-0.2,2-0.6l-0.3-0.7C158.7,33,158.1,33.2,157.5,33.2z M163.5,27.5c-0.8,0-1.6,0.3-2.1,0.7v-2.7h-1.2V34h1.2v-4.9
		c0.5-0.4,1.2-0.6,1.6-0.6c1,0,1.2,0.4,1.2,1.5v4h1.2v-3.9C165.4,28.3,164.9,27.5,163.5,27.5z M169.5,27.5c-1.9,0-2.8,1.4-2.8,3.3
		c0,2.1,1,3.3,2.8,3.3c0.8,0,1.7-0.2,2.2-0.6l-0.2-0.7c-0.3,0.2-1.2,0.3-1.6,0.3c-1,0-1.9-0.5-1.9-2c0,0,0-0.1,0-0.1h3.9
		c0.1-0.3,0.1-0.7,0.1-1.1C171.8,28.3,170.8,27.5,169.5,27.5z M170.7,30.3h-2.8c0.1-1.4,0.8-1.9,1.5-1.9
		C170.6,28.4,170.8,29.4,170.7,30.3z M175.1,30.3c-0.8-0.3-1.3-0.6-1.2-1.2c0-0.4,0.4-0.7,1.2-0.7c0.6,0,1.2,0.2,1.4,0.4l0.2-0.9
		c-0.2-0.1-0.8-0.3-1.6-0.3c-1.3,0-2.3,0.6-2.3,1.7c0,1.1,0.8,1.7,1.8,2.1c0.7,0.3,1.3,0.6,1.3,1.1c0,0.5-0.4,0.8-1.2,0.8
		c-0.8,0-1.6-0.3-1.8-0.5l-0.2,0.9c0.3,0.2,1.2,0.5,2,0.5c1.4,0,2.2-0.6,2.2-1.8C177,31.2,176,30.7,175.1,30.3z M188.9,27.5
		c-0.8,0-1.6,0.4-2.1,0.7v-0.6h-1.2V34h1.2v-4.9c0.5-0.4,1.1-0.6,1.6-0.6c1-0.1,1.2,0.4,1.2,1.5v4h1.2v-4
		C190.8,28.2,190.2,27.5,188.9,27.5z M194.4,30.3c-0.8-0.3-1.3-0.6-1.2-1.2c0-0.4,0.4-0.7,1.2-0.7c0.6,0,1.2,0.2,1.4,0.4l0.2-0.9
		c-0.2-0.1-0.8-0.3-1.6-0.3c-1.3,0-2.3,0.6-2.3,1.7c0,1.1,0.8,1.7,1.8,2.1c0.7,0.3,1.3,0.6,1.3,1.1c0,0.5-0.4,0.8-1.2,0.8
		c-0.8,0-1.6-0.3-1.8-0.5l-0.2,0.9c0.3,0.2,1.2,0.5,2,0.5c1.4,0,2.2-0.6,2.2-1.8C196.2,31.2,195.2,30.7,194.4,30.3z M199.5,33.1
		c-0.6,0-0.7-0.1-0.7-1.3v-3.2h1.8v-0.9h-1.8v-1.5h-0.7c-0.2,0.5-0.3,0.9-0.4,1.2c-0.1,0.4-0.4,0.4-0.9,0.5v0.7h0.8v3.9
		c0,1.3,0.7,1.6,1.5,1.6c0.6,0,1.4-0.3,1.8-0.5l-0.2-0.7C200.4,33,199.9,33.1,199.5,33.1z M206.8,33.1c-0.6,0-0.7-0.1-0.7-1.3v-3.2
		h1.8v-0.9h-1.8v-1.5h-0.7c-0.2,0.5-0.3,0.9-0.4,1.2c-0.1,0.4-0.4,0.4-0.9,0.5v0.7h0.8v3.9c0,1.3,0.6,1.6,1.5,1.6
		c0.6,0,1.4-0.3,1.8-0.5l-0.2-0.7C207.7,33,207.1,33.1,206.8,33.1z M218.8,32.9c-0.2,0.1-0.8,0.2-1.1,0.2c-0.6,0-0.7-0.1-0.7-1.3
		v-3.2h1.8v-0.9H217v-1.5h-0.7c-0.2,0.5-0.3,0.9-0.4,1.2c-0.1,0.4-0.4,0.4-0.9,0.5v0.7h0.8v3.9c0,1.3,0.6,1.6,1.5,1.6
		c0.6,0,1.4-0.3,1.8-0.5L218.8,32.9z M202.4,24.8c-0.4,0-0.7,0.3-0.7,0.7c0,0.4,0.3,0.7,0.7,0.7c0.4,0,0.7-0.3,0.7-0.7
		C203.2,25.1,202.8,24.8,202.4,24.8z M201.8,34h1.2v-6.4h-1.2V34z M104.7,25.5H102V34h1.2v-2.9h1.1c2.1,0,3.3-1.1,3.3-2.9
		C107.7,26.3,106.5,25.5,104.7,25.5z M104.3,30.2h-1v-3.8h1c1.4,0,2.1,0.5,2.1,1.8C106.4,29.9,105.4,30.2,104.3,30.2z M118.6,27.7
		c-0.3-0.1-0.6-0.2-1-0.2c-1.9,0-3.2,1.5-3.2,3.5c0,2.1,1.2,3.1,2.5,3.1c0.9,0,1.4-0.4,1.7-0.7V34h1.2v-8.5h-1.2V27.7z M118.6,32.6
		c-0.3,0.2-0.8,0.5-1.4,0.5c-1,0-1.6-0.7-1.6-2.3c0-1.6,0.8-2.5,1.8-2.5c0.5,0,0.9,0.1,1.1,0.3V32.6z M182.4,34h1.3v-8.5h-1.3V34z
		 M212.7,32.7c-0.3,0.2-0.9,0.4-1.4,0.4c-0.8,0-1.2-0.2-1.2-1.7v-3.7h-1.2v3.7c0,1.6,0.3,2.7,1.9,2.7c0.6,0,1.4-0.3,1.9-0.6V34h1.2
		v-6.4h-1.2V32.7z M109.6,26.3c0.4,0,0.7-0.3,0.7-0.7c0-0.4-0.3-0.7-0.7-0.7c-0.4,0-0.7,0.3-0.7,0.7
		C108.9,25.9,109.2,26.3,109.6,26.3z M112.2,26.3c0.4,0,0.7-0.3,0.7-0.7c0-0.4-0.3-0.7-0.7-0.7c-0.4,0-0.7,0.3-0.7,0.7
		C111.4,25.9,111.8,26.3,112.2,26.3z M110.9,27.5c-1,0-2.1,0.4-2.3,0.6l0.3,0.8c0.3-0.2,1.2-0.5,1.7-0.5c0.9,0,1.4,0.1,1.4,1.1v0.7
		c-0.7,0-1.7,0.1-2.4,0.4c-0.8,0.3-1.2,0.9-1.2,1.7c0,1.1,0.8,1.8,2,1.8c0.7,0,1.4-0.3,1.7-0.6V34h1.2v-4.5
		C113.2,27.9,112.3,27.5,110.9,27.5z M111.9,32.8c-0.1,0.2-0.8,0.5-1.4,0.5c-0.7,0-1.1-0.3-1.1-1c0-0.5,0.3-0.8,0.7-0.9
		c0.5-0.2,1.3-0.3,1.7-0.3V32.8z"/>
</g>
<g id="Ebene_1">
	<path class="st2" d="M44.7,44.7c0-1.6,1.3-2.9,2.9-2.9c1.6,0,2.9,1.3,2.9,2.9c0,1.6-1.3,2.9-2.9,2.9C46,47.6,44.7,46.3,44.7,44.7
		L44.7,44.7z"/>
	<path class="st2" d="M40.3,54.1c3.5,0.1,4.5,1.8,4.5,5.9V68h5.8V50.5l-10.3,2.4V54.1L40.3,54.1z"/>
	<path class="st2" d="M68,31.5c0-8.8-15.7-15.9-35-15.9c-6.5,0-12.3,0.8-17.4,2.1v0.7c3.6-0.6,7.5-0.9,11.6-0.9
		c19.3,0,35,7.1,35,15.9c0,3.2-2.2,5.6-5.9,7.8v1.3C64,40,68,36.3,68,31.5L68,31.5z"/>
</g>
</svg>
